<svg enable-background="new 0 0 227 155" viewBox="0 0 227 155" xmlns="http://www.w3.org/2000/svg"><g fill="#f26c31"><path d="m65.2 45.9h38.2l-5.9 22.6c-.9 3.2-2.6 5.7-5.1 7.6s-5.4 2.9-8.6 2.9h-17.8c-4.1 0-7.7 1.2-10.7 3.5-3.1 2.4-5.3 5.6-6.5 9.6-.8 3-.9 5.9-.2 8.6.6 2.7 1.7 5.1 3.3 7.2s3.6 3.8 6.1 5 5.2 1.9 8.1 1.9h10.8c2 0 3.7.8 5 2.4s1.6 3.5 1.1 5.5l-6.8 25h-11.9c-8.1 0-15.6-1.8-22.4-5.3s-12.5-8.2-17-14.1-7.6-12.5-9.2-20-1.4-15.3.7-23.1l.7-2.5c1.5-5.4 3.7-10.4 6.8-14.9 3.1-4.6 6.8-8.4 11-11.7 4.2-3.2 8.9-5.7 14.1-7.5s10.6-2.7 16.2-2.7z"/><path d="m84.5 147.7 33.3-124.6c.9-3.2 2.6-5.7 5.1-7.6s5.3-2.9 8.6-2.9h35.3c8.1 0 15.5 1.8 22.4 5.3 6.8 3.5 12.4 8.3 17 14.1 4.5 5.9 7.6 12.6 9.3 20 1.7 7.5 1.5 15.2-.7 23.1l-.7 2.5c-1.5 5.4-3.7 10.4-6.8 14.9-3 4.6-6.6 8.5-10.9 11.8-4.2 3.3-8.9 5.8-14.1 7.6s-10.6 2.7-16.2 2.7h-30.6l6.1-22.8c.9-3 2.6-5.5 5.1-7.4s5.3-2.9 8.6-2.9h9.7c4.1 0 7.7-1.2 10.9-3.7s5.3-5.7 6.3-9.6c.8-2.8.8-5.6.3-8.3-.6-2.7-1.7-5.1-3.3-7.2s-3.6-3.8-6.1-5.1-5.2-2-8.1-2h-19l-24.7 91.7c-.9 3-2.6 5.5-5.1 7.4s-5.3 2.9-8.4 2.9z"/></g></svg>