<?xml version="1.0" encoding="iso-8859-1"?>
<!-- Generator: Adobe Illustrator 19.0.0, SVG Export Plug-In . SVG Version: 6.00 Build 0)  -->
<svg version="1.1" id="Layer_1" xmlns="http://www.w3.org/2000/svg" xmlns:xlink="http://www.w3.org/1999/xlink" x="0px" y="0px"
	 viewBox="0 0 512 512" style="enable-background:new 0 0 512 512;" xml:space="preserve">
<path style="fill:#52D6C6;" d="M189.077,98.04h301.442c7.287,0,13.248,5.961,13.248,13.248v291.69
	c0,7.287-5.961,13.248-13.248,13.248H22.939c-7.287,0-13.248-5.961-13.248-13.248V111.289c0-7.287,5.961-13.248,13.248-13.248
	h114.066h52.072V98.04z"/>
<path style="opacity:0.1;enable-background:new    ;" d="M490.519,98.04H458.01v259.181c0,7.287-5.961,13.248-13.248,13.248H9.691
	v32.509c0,7.287,5.962,13.248,13.248,13.248h467.58c7.287,0,13.248-5.962,13.248-13.248V111.289
	C503.768,104.003,497.806,98.04,490.519,98.04z"/>
<g style="opacity:0.1;">
	<path d="M189.077,98.04h-52.072H22.939c-7.287,0-13.248,5.961-13.248,13.248v291.69c0,7.287,5.961,13.248,13.248,13.248h77.55
		l73.032-192.156l-73.032,192.157l0,0L221.421,98.04H189.077z"/>
	<path d="M490.519,98.04H285.884l120.932,318.187h83.704c7.287,0,13.248-5.962,13.248-13.248v-291.69
		C503.767,104.003,497.806,98.04,490.519,98.04z"/>
</g>
<path style="fill:#00969C;" d="M503.768,112.348v-1.06c0-7.287-5.962-13.248-13.248-13.248H189.077h-52.072H22.939
	c-7.287,0-13.248,5.962-13.248,13.248v4.13l244.724,162.303L503.768,112.348z"/>
<path d="M491.073,88.426H187.977c-4.202,0-7.606,3.406-7.606,7.606s3.405,7.606,7.606,7.606h303.096c2.228,0,4.158,1.285,5.099,3.15
	c-0.216,0.115-0.429,0.239-0.637,0.377L253.673,267.573l-77.242-51.227c-0.003-0.002-0.005-0.003-0.008-0.005L15.212,109.423v-0.069
	c0-3.151,2.563-5.715,5.715-5.715h114.691c4.202,0,7.606-3.406,7.606-7.606c0-4.201-3.405-7.606-7.606-7.606H20.927
	C9.388,88.426,0,97.814,0,109.354v4.192c0,0.01,0,0.021,0,0.031v289.067c0,11.539,9.388,20.927,20.927,20.927h77.93
	c0.015,0,0.029,0.002,0.045,0.002c0.009,0,0.017-0.002,0.026-0.002h392.144c11.539,0,20.927-9.388,20.927-20.927v-293.29
	C512,97.814,502.612,88.426,491.073,88.426z M253.673,284.305c1.464,0,2.93-0.423,4.205-1.268l72.195-47.881l66.174,173.201H109.931
	l66.132-174.005l73.405,48.683C250.743,283.883,252.209,284.305,253.673,284.305z M15.212,402.645V127.677l147.844,98.052
	l-69.777,182.63H20.927C17.775,408.359,15.212,405.796,15.212,402.645z M491.073,408.359h-78.542l-69.467-181.818l153.723-101.951
	v278.053C496.788,405.796,494.224,408.359,491.073,408.359z"/>
<g>
</g>
<g>
</g>
<g>
</g>
<g>
</g>
<g>
</g>
<g>
</g>
<g>
</g>
<g>
</g>
<g>
</g>
<g>
</g>
<g>
</g>
<g>
</g>
<g>
</g>
<g>
</g>
<g>
</g>
</svg>
