<?xml version="1.0" encoding="iso-8859-1"?>
<!-- Generator: Adobe Illustrator 19.0.0, SVG Export Plug-In . SVG Version: 6.00 Build 0)  -->
<svg version="1.1" id="Capa_1" xmlns="http://www.w3.org/2000/svg" xmlns:xlink="http://www.w3.org/1999/xlink" x="0px" y="0px"
	 viewBox="0 0 512 512" style="enable-background:new 0 0 512 512;" xml:space="preserve">
<g>
	<circle style="fill:#FF5D5D;" cx="429.95" cy="82.05" r="24"/>
	<circle style="fill:#FF5D5D;" cx="82.05" cy="429.95" r="24"/>
</g>
<polygon style="fill:#72D8FF;" points="140.749,189.826 198.438,156.519 256.127,189.826 256.127,256.439 198.438,289.746 
	140.749,256.439 "/>
<polygon style="fill:#4DBAF6;" points="256.127,189.826 313.816,156.519 371.505,189.826 371.505,256.439 313.816,289.746 
	256.127,256.439 "/>
<polygon style="fill:#2E9DE3;" points="198.438,289.746 256.127,256.439 313.816,289.746 313.816,356.36 256.127,389.667 
	198.438,356.36 "/>
<g>
	<circle style="fill:#FEA02C;" cx="437.09" cy="243.04" r="20"/>
	<circle style="fill:#FEA02C;" cx="186.33" cy="422.26" r="20"/>
	<circle style="fill:#FEA02C;" cx="164.36" cy="99.8" r="20"/>
</g>
<path d="M68.194,398.908C37.061,358.008,20,307.612,20,256C20,125.869,125.869,20,256,20c30.546,0,60.266,5.749,88.333,17.086
	c5.123,2.069,10.949-0.406,13.018-5.526c2.069-5.121-0.406-10.949-5.526-13.018C321.365,6.239,289.125,0,256,0
	C187.62,0,123.333,26.628,74.981,74.981C26.629,123.333,0,187.62,0,256c0,56.44,18.815,111.544,53.116,156.107
	c-8.078,13.102-6.453,30.536,4.894,41.884c6.628,6.628,15.335,9.941,24.042,9.941s17.413-3.313,24.042-9.941l0,0
	c13.256-13.257,13.256-34.827,0-48.084C95.863,395.677,80.685,393.35,68.194,398.908z M91.952,439.848
	c-5.459,5.459-14.34,5.46-19.799,0c-5.458-5.458-5.458-14.341,0-19.799c0.044-0.044,0.092-0.08,0.136-0.123
	c0.004-0.003,0.008-0.006,0.012-0.009c0.085-0.07,0.159-0.148,0.241-0.22c2.678-2.485,6.089-3.742,9.51-3.742
	c3.585,0,7.17,1.364,9.899,4.094C97.41,425.507,97.41,434.39,91.952,439.848z"/>
<path d="M458.884,99.893c8.078-13.102,6.453-30.536-4.894-41.883c-13.257-13.256-34.827-13.256-48.084,0
	c-13.256,13.257-13.256,34.827,0,48.084c6.628,6.628,15.335,9.942,24.042,9.942c4.731,0,9.46-0.987,13.858-2.944
	C474.939,153.992,492,204.389,492,256c0,130.131-105.869,236-236,236c-30.392,0-59.97-5.692-87.914-16.918
	c-5.124-2.061-10.948,0.426-13.007,5.552c-2.059,5.125,0.427,10.948,5.552,13.007C190.956,505.823,223.042,512,256,512
	c68.38,0,132.667-26.629,181.02-74.98S512,324.38,512,256C512,199.559,493.186,144.456,458.884,99.893z M420.049,91.951
	c-5.459-5.458-5.459-14.34,0-19.799c2.729-2.729,6.314-4.094,9.899-4.094s7.17,1.365,9.899,4.094c5.459,5.458,5.459,14.34,0,19.799
	c-0.043,0.043-0.09,0.078-0.133,0.12c-0.005,0.004-0.01,0.007-0.015,0.011c-0.114,0.094-0.216,0.198-0.325,0.296
	C433.889,97.39,425.355,97.258,420.049,91.951z"/>
<path d="M369.555,385.196c-30.987,26.85-70.664,41.636-111.72,41.636c-14.076,0-28.006-1.726-41.52-5.102
	c-0.285-16.297-13.623-29.469-29.987-29.469c-16.542,0-30,13.458-30,30s13.458,30,30,30c9.567,0,18.095-4.507,23.593-11.503
	c15.581,4.032,31.667,6.074,47.914,6.074c45.866,0,90.194-16.521,124.816-46.521c4.174-3.616,4.626-9.932,1.009-14.106
	C380.045,382.031,373.73,381.581,369.555,385.196z M186.329,432.261c-5.514,0-10-4.486-10-10s4.486-10,10-10s10,4.486,10,10
	S191.843,432.261,186.329,432.261z"/>
<path d="M407.528,357.905c-4.377-3.364-10.683-2.504-14.05,1.87c-0.006,0.008-0.013,0.017-0.02,0.025
	c-3.354,4.384-2.553,10.699,1.829,14.056c1.803,1.382,3.931,2.047,6.046,2.047c3.025,0,6.023-1.361,8.001-3.938
	C412.694,367.586,411.904,361.27,407.528,357.905z"/>
<path d="M86.473,314.5c-5.119,2.072-7.59,7.902-5.518,13.021l0.05,0.123c1.575,3.891,5.319,6.251,9.273,6.251
	c1.249,0,2.52-0.236,3.749-0.733c5.119-2.072,7.59-7.902,5.518-13.021l-0.05-0.123C97.422,314.897,91.593,312.429,86.473,314.5z"/>
<path d="M148.375,125.173c4.631,2.928,10.111,4.631,15.984,4.631c16.542,0,30-13.458,30-30s-13.458-30-30-30s-30,13.458-30,30
	c0,3.388,0.573,6.644,1.613,9.684c-19.914,16.587-36.486,37.271-48.2,60.3c-13.688,26.907-20.628,55.959-20.628,86.351
	c0,11.915,1.107,23.844,3.292,35.457c0.903,4.803,5.101,8.153,9.816,8.153c0.613,0,1.235-0.057,1.86-0.175
	c5.428-1.021,9-6.248,7.979-11.676c-1.956-10.396-2.947-21.082-2.947-31.76C87.143,204.988,109.36,157.727,148.375,125.173z
	 M164.358,89.804c5.514,0,10,4.486,10,10s-4.486,10-10,10s-10-4.486-10-10S158.844,89.804,164.358,89.804z"/>
<path d="M437.086,273.036c16.542,0,30-13.458,30-30c0-14.239-9.974-26.184-23.3-29.236c-6.89-30.35-21.257-58.779-41.74-82.433
	c-21.179-24.458-48.352-43.243-78.581-54.323c-5.183-1.898-10.93,0.762-12.831,5.948c-1.901,5.185,0.762,10.93,5.948,12.831
	c53.359,19.559,93.996,65.348,107.231,120.32c-9.901,4.906-16.727,15.116-16.727,26.894
	C407.086,259.578,420.544,273.036,437.086,273.036z M437.086,253.036c-5.514,0-10-4.486-10-10s4.486-10,10-10s10,4.486,10,10
	C447.086,248.55,442.6,253.036,437.086,253.036z"/>
<path d="M188.438,356.359c0,3.572,1.906,6.874,5,8.66l57.689,33.308c1.547,0.894,3.273,1.34,5,1.34s3.453-0.446,5-1.34
	l57.689-33.308c3.094-1.786,5-5.088,5-8.66v-60.84l52.689-30.42c3.094-1.786,5-5.088,5-8.66v-66.614c0-3.573-1.906-6.874-5-8.66
	l-57.689-33.307c-3.094-1.786-6.906-1.786-10,0l-52.689,30.42l-52.689-30.42c-3.094-1.786-6.906-1.786-10,0l-57.689,33.307
	c-3.094,1.786-5,5.087-5,8.66v66.614c0,3.572,1.906,6.874,5,8.66l52.689,30.42L188.438,356.359L188.438,356.359z M303.816,350.586
	l-47.689,27.534l-47.689-27.534V295.52l23.844-13.767l23.844-13.767l23.844,13.767l23.844,13.767v55.066H303.816z M313.816,168.066
	l47.689,27.533v55.067l-47.689,27.533l-23.844-13.767l-23.844-13.767v-55.067L313.816,168.066z M150.749,195.599l47.689-27.533
	l47.689,27.533v55.067l-23.844,13.767L198.439,278.2l-47.689-27.533v-55.068H150.749z"/>
<path d="M292.697,69.789c-1.474-1.133-3.167-1.776-4.893-1.978c-3.399-0.398-6.924,0.947-9.158,3.848
	c-0.006,0.008-0.013,0.017-0.02,0.025c-3.354,4.384-2.553,10.699,1.829,14.056c1.803,1.382,3.931,2.047,6.046,2.047
	c3.025,0,6.023-1.361,8.001-3.938C297.863,79.47,297.073,73.153,292.697,69.789z"/>
<g>
</g>
<g>
</g>
<g>
</g>
<g>
</g>
<g>
</g>
<g>
</g>
<g>
</g>
<g>
</g>
<g>
</g>
<g>
</g>
<g>
</g>
<g>
</g>
<g>
</g>
<g>
</g>
<g>
</g>
</svg>
