<?xml version="1.0" encoding="iso-8859-1"?>
<!-- Generator: Adobe Illustrator 19.0.0, SVG Export Plug-In . SVG Version: 6.00 Build 0)  -->
<svg version="1.1" id="Capa_1" xmlns="http://www.w3.org/2000/svg" xmlns:xlink="http://www.w3.org/1999/xlink" x="0px" y="0px"
	 viewBox="0 0 512 512" style="enable-background:new 0 0 512 512;" xml:space="preserve">
<g>
	<circle style="fill:#44C5BD;" cx="256" cy="63.969" r="24"/>
	<circle style="fill:#44C5BD;" cx="478" cy="88" r="24"/>
	<circle style="fill:#44C5BD;" cx="448.03" cy="256" r="24"/>
	<circle style="fill:#44C5BD;" cx="424" cy="478" r="24"/>
	<circle style="fill:#44C5BD;" cx="256" cy="448.03" r="24"/>
	<circle style="fill:#44C5BD;" cx="34" cy="424" r="24"/>
	<circle style="fill:#44C5BD;" cx="63.969" cy="256" r="24"/>
	<circle style="fill:#44C5BD;" cx="88" cy="34" r="24"/>
</g>
<rect x="168" y="168" style="fill:#FFB954;" width="176" height="176"/>
<rect x="220" y="220" style="fill:#FFFFFF;" width="72" height="72"/>
<path d="M220,302h72c5.523,0,10-4.478,10-10v-72c0-5.522-4.477-10-10-10h-72c-5.523,0-10,4.478-10,10v72
	C210,297.522,214.477,302,220,302z M230,230h52v52h-52V230z"/>
<path d="M478,54c-18.748,0-34,15.252-34,34s15.252,34,34,34s34-15.252,34-34S496.748,54,478,54z M478,102c-7.72,0-14-6.28-14-14
	s6.28-14,14-14s14,6.28,14,14S485.72,102,478,102z"/>
<path d="M419.52,97.97c2.63,0,5.21-1.07,7.07-2.93c1.86-1.86,2.93-4.44,2.93-7.07s-1.07-5.21-2.93-7.07
	c-1.86-1.859-4.44-2.93-7.07-2.93c-2.64,0-5.22,1.07-7.08,2.93s-2.92,4.44-2.92,7.07s1.06,5.21,2.92,7.07
	C414.31,96.899,416.88,97.97,419.52,97.97z"/>
<path d="M448.031,222c-15.269,0-28.217,10.117-32.497,24H354v-78c0-5.522-4.477-10-10-10h-16V97.97h56.022c5.523,0,10-4.478,10-10
	s-4.477-10-10-10H318c-5.523,0-10,4.478-10,10V158h-42V96.467c13.882-4.281,24-17.228,24-32.497c0-18.748-15.252-34-34-34
	s-34,15.252-34,34c0,15.269,10.118,28.217,24,32.497V158h-78c-5.523,0-10,4.478-10,10v16H97.969V66.506
	C111.867,62.235,122,49.28,122,34c0-18.748-15.252-34-34-34S54,15.252,54,34c0,15.258,10.103,28.198,23.969,32.488V194
	c0,5.522,4.477,10,10,10H158v42H96.466c-4.281-13.883-17.229-24-32.497-24c-18.748,0-34,15.252-34,34s15.252,34,34,34
	c15.269,0,28.217-10.117,32.497-24H158v78c0,5.522,4.477,10,10,10h16v60.03h-56.022c-5.523,0-10,4.478-10,10s4.477,10,10,10H194
	c5.523,0,10-4.478,10-10V354h42v61.533c-13.882,4.281-24,17.228-24,32.497c0,18.748,15.252,34,34,34s34-15.252,34-34
	c0-15.269-10.118-28.217-24-32.497V354h78c5.523,0,10-4.478,10-10v-16h60.031v117.494C400.133,449.765,390,462.72,390,478
	c0,18.748,15.252,34,34,34s34-15.252,34-34c0-15.258-10.103-28.198-23.969-32.488V318c0-5.522-4.477-10-10-10H354v-42h61.534
	c4.281,13.883,17.229,24,32.497,24c18.748,0,34-15.252,34-34S466.778,222,448.031,222z M256,49.97c7.72,0,14,6.28,14,14
	s-6.28,14-14,14s-14-6.28-14-14S248.28,49.97,256,49.97z M88,20c7.72,0,14,6.28,14,14s-6.28,14-14,14s-14-6.28-14-14S80.28,20,88,20
	z M63.969,270c-7.72,0-14-6.28-14-14s6.28-14,14-14s14,6.28,14,14S71.689,270,63.969,270z M256,462.03c-7.72,0-14-6.28-14-14
	s6.28-14,14-14s14,6.28,14,14S263.72,462.03,256,462.03z M424,492c-7.72,0-14-6.28-14-14s6.28-14,14-14s14,6.28,14,14
	S431.72,492,424,492z M334,334H178V178h156V334z M448.031,270c-7.72,0-14-6.28-14-14s6.28-14,14-14s14,6.28,14,14
	S455.75,270,448.031,270z"/>
<path d="M34,390c-18.748,0-34,15.252-34,34s15.252,34,34,34s34-15.252,34-34S52.748,390,34,390z M34,438c-7.72,0-14-6.28-14-14
	s6.28-14,14-14s14,6.28,14,14S41.72,438,34,438z"/>
<path d="M92.5,414.03c-2.63,0-5.21,1.069-7.07,2.93c-1.86,1.859-2.93,4.439-2.93,7.07c0,2.63,1.07,5.21,2.93,7.069
	c1.86,1.86,4.44,2.931,7.07,2.931s5.21-1.07,7.07-2.931c1.86-1.859,2.93-4.439,2.93-7.069c0-2.631-1.07-5.211-2.93-7.07
	C97.71,415.1,95.13,414.03,92.5,414.03z"/>
<g>
</g>
<g>
</g>
<g>
</g>
<g>
</g>
<g>
</g>
<g>
</g>
<g>
</g>
<g>
</g>
<g>
</g>
<g>
</g>
<g>
</g>
<g>
</g>
<g>
</g>
<g>
</g>
<g>
</g>
</svg>
