<?xml version="1.0" encoding="iso-8859-1"?>
<!-- Generator: Adobe Illustrator 19.0.0, SVG Export Plug-In . SVG Version: 6.00 Build 0)  -->
<svg version="1.1" id="Capa_1" xmlns="http://www.w3.org/2000/svg" xmlns:xlink="http://www.w3.org/1999/xlink" x="0px" y="0px"
	 viewBox="0 0 511.999 511.999" style="enable-background:new 0 0 511.999 511.999;" xml:space="preserve">
<path style="fill:#FFB954;" d="M484.295,320.912c-28.072-56.83-86.607-95.923-154.281-95.923
	c-94.985,0-171.986,77.001-171.986,171.986h250.204L484.295,320.912z"/>
<path style="fill:#44C5BD;" d="M198.445,459.883l-35.932,35.932c-8.24,8.24-21.6,8.24-29.841,0L16.18,379.321
	c-8.24-8.24-8.24-21.6,0-29.841l35.932-35.932c8.24-8.24,21.6-8.24,29.841,0l116.493,116.493
	C206.685,438.283,206.685,451.643,198.445,459.883z"/>
<path style="fill:#FEDA9B;" d="M107.578,331.319l74.555-42.926c15.585-8.973,34.194-11.078,51.389-5.813l102.357,31.342
	c12.224,3.743,20.107,15.593,18.836,28.314l0,0c-1.37,13.713-12.909,24.157-26.69,24.157h-69.712l22.686,0.07h71.303l101.838-94.842
	c10.044-9.354,25.333-10.207,36.356-2.03l0,0c14.289,10.601,15.457,31.566,2.434,43.689l-118.396,110.22
	c-9.99,9.299-23.131,14.47-36.78,14.47H204.509L107.578,331.319z"/>
<circle style="fill:#FF5D5D;" cx="329.723" cy="38.007" r="27.998"/>
<g>
	<path style="fill:#44C5BD;" d="M447.964,64.133c0,12.919-10.473,23.392-23.392,23.392S401.18,77.052,401.18,64.133
		s10.473-23.392,23.392-23.392S447.964,51.214,447.964,64.133z"/>
	<path style="fill:#44C5BD;" d="M235.456,40.741c12.919,0,23.392,10.473,23.392,23.392s-10.473,23.392-23.392,23.392
		c-12.919,0-23.392-10.473-23.392-23.392S222.537,40.741,235.456,40.741z"/>
</g>
<path d="M511.939,290.309c-0.638-11.441-6.281-21.92-15.485-28.748c-13.552-10.054-31.877-10.003-45.294-0.391
	c-18.052-16.136-38.825-28.319-61.223-36.11c0-0.024,0.004-0.048,0.004-0.073v-50.513l40.783-30.762
	c2.505-1.89,3.978-4.846,3.978-7.982V95.949c13.475-4.3,23.263-16.935,23.263-31.816c0-18.411-14.979-33.391-33.391-33.391
	c-18.413,0-33.391,14.979-33.391,33.391c0,14.977,9.912,27.682,23.521,31.9v34.715l-40.783,30.762
	c-2.505,1.89-3.978,4.846-3.978,7.982v49.877c-9.867-2.201-19.969-3.583-30.223-4.12v-81.254c0-5.522-4.477-9.999-9.999-9.999
	s-9.999,4.478-9.999,9.999v81.284c-10.04,0.555-19.931,1.931-29.636,4.104v-49.892c0-3.138-1.473-6.094-3.978-7.982l-40.783-30.762
	V96.034c13.609-4.219,23.521-16.924,23.521-31.901c0-18.411-14.979-33.391-33.391-33.391s-33.391,14.979-33.391,33.391
	c0,14.882,9.788,27.517,23.263,31.816v39.783c0,3.138,1.473,6.093,3.978,7.982l40.783,30.762v50.513
	c0,0.033,0.005,0.065,0.005,0.098c-4.613,1.612-9.174,3.409-13.677,5.403c-22.029,9.752-41.625,23.579-58.276,41.092
	c-7.314,1.634-14.406,4.354-20.995,8.147l-72.9,41.973L89.023,306.48c-5.875-5.874-13.684-9.108-21.991-9.108
	s-16.117,3.235-21.991,9.108L9.109,342.411C3.235,348.285,0,356.094,0,364.401s3.235,16.117,9.108,21.991l116.493,116.493
	c5.875,5.874,13.684,9.108,21.991,9.108c8.307,0,16.117-3.235,21.991-9.108l35.932-35.932c12.125-12.126,12.125-31.855,0-43.981
	l-86.628-86.627l68.234-39.287c13.134-7.562,28.981-9.354,43.472-4.918l102.357,31.342c7.64,2.34,12.609,9.809,11.815,17.76
	c-0.863,8.638-8.06,15.152-16.741,15.152h-69.712c-5.523,0-9.999,4.478-9.999,9.999c0,5.522,4.477,9.999,9.999,9.999l93.989,0.07
	c2.529,0,4.964-0.958,6.814-2.682l101.838-94.843c6.516-6.068,16.435-6.62,23.583-1.316c4.418,3.277,7.126,8.307,7.433,13.8
	s-1.828,10.792-5.854,14.541L367.72,416.183c-8.167,7.602-18.809,11.789-29.967,11.789H284c-5.523,0-9.999,4.478-9.999,9.999
	s4.477,9.999,9.999,9.999h53.754c16.23,0,31.711-6.09,43.593-17.15l118.398-110.22C508.132,312.794,512.577,301.752,511.939,290.309
	z M411.18,64.133c0-7.384,6.008-13.393,13.393-13.393c7.384,0,13.393,6.009,13.393,13.393s-6.008,13.393-13.393,13.393
	S411.18,71.517,411.18,64.133z M235.456,77.526c-7.385,0-13.393-6.009-13.393-13.393s6.008-13.393,13.393-13.393
	c7.384,0,13.393,6.009,13.393,13.393S242.84,77.526,235.456,77.526z M191.374,437.114c4.329,4.328,4.329,11.371,0,15.699
	l-35.932,35.932c-2.097,2.098-4.885,3.252-7.849,3.252s-5.753-1.154-7.849-3.252L23.25,372.252c-2.097-2.097-3.252-4.885-3.252-7.85
	c0-2.965,1.155-5.753,3.252-7.849l35.932-35.932c2.097-2.098,4.885-3.252,7.849-3.252s5.753,1.154,7.849,3.252L191.374,437.114z
	 M364.807,341.155c0.713-16.611-9.945-31.877-26-36.793L236.451,273.02c-2.744-0.84-5.525-1.5-8.324-2.014
	c28.696-23.358,64.149-36.018,101.889-36.018c39.386,0,76.723,14.025,106.193,39.671L364.807,341.155z"/>
<path d="M243.651,427.972c-2.64,0-5.21,1.069-7.079,2.93c-1.86,1.86-2.92,4.44-2.92,7.069s1.06,5.21,2.92,7.068
	c1.87,1.86,4.44,2.931,7.079,2.931c2.63,0,5.21-1.07,7.069-2.931c1.86-1.859,2.93-4.439,2.93-7.068s-1.07-5.21-2.93-7.069
	S246.281,427.972,243.651,427.972z"/>
<path d="M322.645,91.93c-1.86,1.86-2.92,4.44-2.92,7.069c0,2.63,1.06,5.21,2.92,7.068c1.87,1.86,4.44,2.931,7.079,2.931
	c2.63,0,5.21-1.07,7.069-2.931c1.86-1.859,2.93-4.439,2.93-7.068c0-2.63-1.07-5.21-2.93-7.069s-4.44-2.93-7.069-2.93
	C327.084,89,324.515,90.07,322.645,91.93z"/>
<path d="M151.559,457.97c2.63,0,5.21-1.07,7.069-2.931c1.86-1.859,2.93-4.439,2.93-7.068s-1.07-5.21-2.93-7.069
	c-1.86-1.86-4.44-2.93-7.069-2.93s-5.21,1.069-7.069,2.93c-1.86,1.86-2.93,4.44-2.93,7.069s1.07,5.21,2.93,7.068
	C146.349,456.9,148.929,457.97,151.559,457.97z"/>
<path d="M329.721,75.999c20.951,0,37.997-17.046,37.997-37.997S350.672,0.005,329.721,0.005c-20.951,0-37.997,17.046-37.997,37.997
	S308.769,75.999,329.721,75.999z M329.721,20.004c9.924,0,17.999,8.074,17.999,17.999s-8.074,17.999-17.999,17.999
	c-9.924,0-17.999-8.074-17.999-17.999S319.796,20.004,329.721,20.004z"/>
<path d="M156.081,129.377h6.858c5.523,0,9.999-4.478,9.999-9.999c0-5.522-4.477-9.999-9.999-9.999h-6.858
	c-5.523,0-9.999,4.478-9.999,9.999C146.082,124.899,150.559,129.377,156.081,129.377z"/>
<path d="M107.565,129.377h6.858c5.523,0,9.999-4.478,9.999-9.999c0-5.522-4.477-9.999-9.999-9.999h-6.858
	c-5.523,0-9.999,4.478-9.999,9.999C97.566,124.899,102.043,129.377,107.565,129.377z"/>
<path d="M135.253,157.064c5.523,0,9.999-4.478,9.999-9.999v-6.858c0-5.522-4.477-9.999-9.999-9.999s-9.999,4.478-9.999,9.999v6.858
	C125.254,152.587,129.73,157.064,135.253,157.064z"/>
<path d="M135.253,108.547c5.523,0,9.999-4.478,9.999-9.999V91.69c0-5.522-4.477-9.999-9.999-9.999s-9.999,4.478-9.999,9.999v6.858
	C125.254,104.07,129.73,108.547,135.253,108.547z"/>
<path d="M495.102,187.159h6.858c5.523,0,9.999-4.478,9.999-9.999c0-5.522-4.477-9.999-9.999-9.999h-6.858
	c-5.523,0-9.999,4.478-9.999,9.999C485.103,182.681,489.58,187.159,495.102,187.159z"/>
<path d="M446.585,167.16c-5.523,0-9.999,4.478-9.999,9.999c0,5.522,4.477,9.999,9.999,9.999h6.858c5.523,0,9.999-4.478,9.999-9.999
	c0-5.522-4.477-9.999-9.999-9.999H446.585z"/>
<path d="M474.273,214.847c5.523,0,9.999-4.478,9.999-9.999v-6.858c0-5.522-4.477-9.999-9.999-9.999s-9.999,4.478-9.999,9.999v6.858
	C464.274,210.369,468.751,214.847,474.273,214.847z"/>
<path d="M474.273,166.33c5.523,0,9.999-4.478,9.999-9.999v-6.858c0-5.522-4.477-9.999-9.999-9.999s-9.999,4.478-9.999,9.999v6.858
	C464.274,161.853,468.751,166.33,474.273,166.33z"/>
<g>
</g>
<g>
</g>
<g>
</g>
<g>
</g>
<g>
</g>
<g>
</g>
<g>
</g>
<g>
</g>
<g>
</g>
<g>
</g>
<g>
</g>
<g>
</g>
<g>
</g>
<g>
</g>
<g>
</g>
</svg>
