<?xml version="1.0" encoding="utf-8"?>
<!-- Generator: Adobe Illustrator 21.0.0, SVG Export Plug-In . SVG Version: 6.00 Build 0)  -->
<svg version="1.1" id="Layer_1" xmlns="http://www.w3.org/2000/svg" xmlns:xlink="http://www.w3.org/1999/xlink" x="0px" y="0px"
	 viewBox="0 0 985.4 919.8" style="enable-background:new 0 0 985.4 919.8;" xml:space="preserve">
<style type="text/css">
	.st0{fill:#FCFCFC;}
	.st1{fill:#FFC200;}
	.st2{fill:#F7162D;}
	.st3{fill:#4F4F4F;}
	.st4{fill:#FFFFFF;}
	.st5{fill:#FF3943;}
	.st6{enable-background:new    ;}
	.st7{fill:#00285F;}
</style>
<title>vds-indirim</title>
<g>
	
		<image style="overflow:visible;enable-background:new    ;" width="948" height="841" xlink:href="6338FE89.png"  transform="matrix(1 0 0 1 22 49.79)">
	</image>
</g>
<polygon class="st0" points="735.7,65.2 306.5,65.2 91.9,440.7 306.5,816.1 735.7,816.1 950.3,440.7 "/>
<polygon class="st1" points="720.7,91.5 321.5,91.5 121.9,440.7 321.5,789.8 720.7,789.8 920.3,440.7 "/>
<polygon class="st2" points="287.2,31 299.1,139.9 225.9,21.4 "/>
<polygon class="st2" points="261.8,153 118.6,67.1 110.6,118.1 "/>
<polygon class="st2" points="786.6,838 710.1,688.5 840.5,819 "/>
<polygon class="st2" points="866.2,739.1 742.7,672.3 875.8,689.9 "/>
<path class="st3" d="M686.5,227.3L577.9,337c0.4,1.5,0.9,3,1.3,4.5l111.7-112.8C689.4,228.2,687.9,227.8,686.5,227.3z M716.9,242.7
	l-123.8,125c0.8,1.1,1.7,2.2,2.6,3.2l124.4-125.6C719,244.5,718,243.6,716.9,242.7z M697.7,231.3L581.8,348.4c0.6,1.3,1.2,2.7,1.8,4
	l118-119.2C700.4,232.5,699.1,231.9,697.7,231.3z M673.7,224.8l-98.4,99.4c0.2,1.7,0.5,3.4,0.8,5.1l102.6-103.7
	C677.1,225.3,675.4,225,673.7,224.8z M725,249.9L600.2,376c1,1,1.9,1.9,2.9,2.9L727.8,253C726.9,251.9,726,250.9,725,249.9z
	 M662.9,224.1c-1.3,0-2.5,0-3.8,0.1l-84.3,85.2c-0.1,1.3-0.1,2.5-0.1,3.8c0,0.7,0,1.4,0.1,2l90.2-91.1
	C664.2,224.1,663.6,224.1,662.9,224.1z M613.9,239.1l-24.3,24.6c-2.7,4.1-5.1,8.5-7.1,13l44.4-44.8C622.3,234,618,236.4,613.9,239.1
	z M641.3,226.8l-64,64.6c-0.6,2.4-1.1,4.9-1.5,7.3l72.7-73.5C646.1,225.7,643.7,226.2,641.3,226.8z M707.8,236.5L587,358.6
	c0.7,1.2,1.5,2.4,2.2,3.6l122.2-123.4C710.2,238,709,237.2,707.8,236.5z M691.1,397.7l55.4-56c0.9-2.7,1.7-5.4,2.3-8.1L683,400
	C685.8,399.4,688.4,398.6,691.1,397.7z M665.5,402.3c2.1-0.1,4.1-0.2,6.1-0.4l79-79.8c0.2-2,0.3-4.1,0.4-6.2L665.5,402.3z
	 M738.3,359.5l-29.6,29.9C720.8,382,731,371.7,738.3,359.5z M750.3,301.3L651,401.5c1.7,0.2,3.5,0.4,5.2,0.5l94.6-95.5
	C750.7,304.8,750.6,303,750.3,301.3z M738.4,267.1L617.3,389.5c1.2,0.7,2.4,1.4,3.7,2.1l119.6-120.8
	C739.9,269.6,739.2,268.3,738.4,267.1z M732.2,258.1L608.3,383.2c1.1,0.9,2.2,1.7,3.3,2.5l123.1-124.3
	C733.9,260.3,733,259.1,732.2,258.1z M743.6,277.3L627.3,394.8c1.3,0.6,2.7,1.2,4.1,1.7l113.9-115.1
	C744.8,280,744.2,278.6,743.6,277.3z M747.7,288.5L638.5,398.9c1.5,0.4,3,0.8,4.6,1.2l105.8-106.9
	C748.5,291.6,748.1,290.1,747.7,288.5z"/>
<g>
	<ellipse class="st4" cx="269.8" cy="201" rx="1.3" ry="1.3"/>
	<ellipse class="st4" cx="280.8" cy="201" rx="1.3" ry="1.3"/>
	<ellipse class="st4" cx="291.8" cy="201" rx="1.3" ry="1.3"/>
	<ellipse class="st4" cx="302.9" cy="201" rx="1.3" ry="1.3"/>
	<ellipse class="st4" cx="313.9" cy="201" rx="1.3" ry="1.3"/>
	<ellipse class="st4" cx="324.9" cy="201" rx="1.3" ry="1.3"/>
	<ellipse class="st4" cx="335.9" cy="201" rx="1.3" ry="1.3"/>
	<ellipse class="st4" cx="269.8" cy="212.1" rx="1.3" ry="1.3"/>
	<ellipse class="st4" cx="280.8" cy="212.1" rx="1.3" ry="1.3"/>
	<ellipse class="st4" cx="291.8" cy="212.1" rx="1.3" ry="1.3"/>
	<ellipse class="st4" cx="302.9" cy="212.1" rx="1.3" ry="1.3"/>
	<ellipse class="st4" cx="313.9" cy="212.1" rx="1.3" ry="1.3"/>
	<ellipse class="st4" cx="324.9" cy="212.1" rx="1.3" ry="1.3"/>
	<ellipse class="st4" cx="335.9" cy="212.1" rx="1.3" ry="1.3"/>
	<ellipse class="st4" cx="269.8" cy="223.3" rx="1.3" ry="1.3"/>
	<ellipse class="st4" cx="280.8" cy="223.3" rx="1.3" ry="1.3"/>
	<ellipse class="st4" cx="291.8" cy="223.3" rx="1.3" ry="1.3"/>
	<ellipse class="st4" cx="302.9" cy="223.3" rx="1.3" ry="1.3"/>
	<ellipse class="st4" cx="313.9" cy="223.3" rx="1.3" ry="1.3"/>
	<ellipse class="st4" cx="324.9" cy="223.3" rx="1.3" ry="1.3"/>
	<ellipse class="st4" cx="335.9" cy="223.3" rx="1.3" ry="1.3"/>
	<ellipse class="st4" cx="269.8" cy="234.4" rx="1.3" ry="1.3"/>
	<ellipse class="st4" cx="280.8" cy="234.4" rx="1.3" ry="1.3"/>
	<ellipse class="st4" cx="291.8" cy="234.4" rx="1.3" ry="1.3"/>
	<ellipse class="st4" cx="302.9" cy="234.4" rx="1.3" ry="1.3"/>
	<ellipse class="st4" cx="313.9" cy="234.4" rx="1.3" ry="1.3"/>
	<ellipse class="st4" cx="324.9" cy="234.4" rx="1.3" ry="1.3"/>
	<ellipse class="st4" cx="335.9" cy="234.4" rx="1.3" ry="1.3"/>
	<ellipse class="st4" cx="269.8" cy="245.5" rx="1.3" ry="1.3"/>
	<ellipse class="st4" cx="280.8" cy="245.5" rx="1.3" ry="1.3"/>
	<ellipse class="st4" cx="291.8" cy="245.5" rx="1.3" ry="1.3"/>
	<ellipse class="st4" cx="302.9" cy="245.5" rx="1.3" ry="1.3"/>
	<ellipse class="st4" cx="313.9" cy="245.5" rx="1.3" ry="1.3"/>
	<ellipse class="st4" cx="324.9" cy="245.5" rx="1.3" ry="1.3"/>
	<ellipse class="st4" cx="335.9" cy="245.5" rx="1.3" ry="1.3"/>
	<ellipse class="st4" cx="269.8" cy="256.7" rx="1.3" ry="1.3"/>
	<ellipse class="st4" cx="280.8" cy="256.7" rx="1.3" ry="1.3"/>
	<ellipse class="st4" cx="291.8" cy="256.7" rx="1.3" ry="1.3"/>
	<ellipse class="st4" cx="302.9" cy="256.7" rx="1.3" ry="1.3"/>
	<ellipse class="st4" cx="313.9" cy="256.7" rx="1.3" ry="1.3"/>
	<ellipse class="st4" cx="324.9" cy="256.7" rx="1.3" ry="1.3"/>
	<ellipse class="st4" cx="335.9" cy="256.7" rx="1.3" ry="1.3"/>
	<ellipse class="st4" cx="269.8" cy="267.8" rx="1.3" ry="1.3"/>
	<ellipse class="st4" cx="280.8" cy="267.8" rx="1.3" ry="1.3"/>
	<ellipse class="st4" cx="291.8" cy="267.8" rx="1.3" ry="1.3"/>
	<ellipse class="st4" cx="302.9" cy="267.8" rx="1.3" ry="1.3"/>
	<ellipse class="st4" cx="313.9" cy="267.8" rx="1.3" ry="1.3"/>
	<ellipse class="st4" cx="324.9" cy="267.8" rx="1.3" ry="1.3"/>
	<ellipse class="st4" cx="335.9" cy="267.8" rx="1.3" ry="1.3"/>
	<ellipse class="st4" cx="269.8" cy="278.9" rx="1.3" ry="1.3"/>
	<ellipse class="st4" cx="280.8" cy="278.9" rx="1.3" ry="1.3"/>
	<ellipse class="st4" cx="291.8" cy="278.9" rx="1.3" ry="1.3"/>
	<ellipse class="st4" cx="302.9" cy="278.9" rx="1.3" ry="1.3"/>
	<ellipse class="st4" cx="313.9" cy="278.9" rx="1.3" ry="1.3"/>
	<ellipse class="st4" cx="324.9" cy="278.9" rx="1.3" ry="1.3"/>
	<ellipse class="st4" cx="335.9" cy="278.9" rx="1.3" ry="1.3"/>
	<ellipse class="st4" cx="269.8" cy="290.1" rx="1.3" ry="1.3"/>
	<ellipse class="st4" cx="280.8" cy="290.1" rx="1.3" ry="1.3"/>
	<ellipse class="st4" cx="291.8" cy="290.1" rx="1.3" ry="1.3"/>
	<ellipse class="st4" cx="302.9" cy="290.1" rx="1.3" ry="1.3"/>
	<ellipse class="st4" cx="313.9" cy="290.1" rx="1.3" ry="1.3"/>
	<ellipse class="st4" cx="324.9" cy="290.1" rx="1.3" ry="1.3"/>
	<ellipse class="st4" cx="335.9" cy="290.1" rx="1.3" ry="1.3"/>
	<ellipse class="st4" cx="269.8" cy="301.2" rx="1.3" ry="1.3"/>
	<ellipse class="st4" cx="280.8" cy="301.2" rx="1.3" ry="1.3"/>
	<ellipse class="st4" cx="291.8" cy="301.2" rx="1.3" ry="1.3"/>
	<ellipse class="st4" cx="302.9" cy="301.2" rx="1.3" ry="1.3"/>
	<ellipse class="st4" cx="313.9" cy="301.2" rx="1.3" ry="1.3"/>
	<ellipse class="st4" cx="324.9" cy="301.2" rx="1.3" ry="1.3"/>
	<ellipse class="st4" cx="335.9" cy="301.2" rx="1.3" ry="1.3"/>
	<ellipse class="st4" cx="269.8" cy="312.3" rx="1.3" ry="1.3"/>
	<ellipse class="st4" cx="280.8" cy="312.3" rx="1.3" ry="1.3"/>
	<ellipse class="st4" cx="291.8" cy="312.3" rx="1.3" ry="1.3"/>
	<ellipse class="st4" cx="302.9" cy="312.3" rx="1.3" ry="1.3"/>
	<ellipse class="st4" cx="313.9" cy="312.3" rx="1.3" ry="1.3"/>
	<ellipse class="st4" cx="324.9" cy="312.3" rx="1.3" ry="1.3"/>
	<ellipse class="st4" cx="335.9" cy="312.3" rx="1.3" ry="1.3"/>
	<ellipse class="st4" cx="269.8" cy="323.5" rx="1.3" ry="1.3"/>
	<ellipse class="st4" cx="280.8" cy="323.5" rx="1.3" ry="1.3"/>
	<ellipse class="st4" cx="291.8" cy="323.5" rx="1.3" ry="1.3"/>
	<ellipse class="st4" cx="302.9" cy="323.5" rx="1.3" ry="1.3"/>
	<ellipse class="st4" cx="313.9" cy="323.5" rx="1.3" ry="1.3"/>
	<ellipse class="st4" cx="324.9" cy="323.5" rx="1.3" ry="1.3"/>
	<ellipse class="st4" cx="335.9" cy="323.5" rx="1.3" ry="1.3"/>
	<ellipse class="st4" cx="269.8" cy="334.6" rx="1.3" ry="1.3"/>
	<ellipse class="st4" cx="280.8" cy="334.6" rx="1.3" ry="1.3"/>
	<ellipse class="st4" cx="291.8" cy="334.6" rx="1.3" ry="1.3"/>
	<ellipse class="st4" cx="302.9" cy="334.6" rx="1.3" ry="1.3"/>
	<ellipse class="st4" cx="313.9" cy="334.6" rx="1.3" ry="1.3"/>
	<ellipse class="st4" cx="324.9" cy="334.6" rx="1.3" ry="1.3"/>
	<ellipse class="st4" cx="335.9" cy="334.6" rx="1.3" ry="1.3"/>
	<ellipse class="st4" cx="269.8" cy="345.7" rx="1.3" ry="1.3"/>
	<ellipse class="st4" cx="280.8" cy="345.7" rx="1.3" ry="1.3"/>
	<ellipse class="st4" cx="291.8" cy="345.7" rx="1.3" ry="1.3"/>
	<ellipse class="st4" cx="302.9" cy="345.7" rx="1.3" ry="1.3"/>
	<ellipse class="st4" cx="313.9" cy="345.7" rx="1.3" ry="1.3"/>
	<ellipse class="st4" cx="324.9" cy="345.7" rx="1.3" ry="1.3"/>
	<ellipse class="st4" cx="335.9" cy="345.7" rx="1.3" ry="1.3"/>
	<ellipse class="st4" cx="269.8" cy="356.9" rx="1.3" ry="1.3"/>
	<ellipse class="st4" cx="280.8" cy="356.9" rx="1.3" ry="1.3"/>
	<ellipse class="st4" cx="291.8" cy="356.9" rx="1.3" ry="1.3"/>
	<ellipse class="st4" cx="302.9" cy="356.9" rx="1.3" ry="1.3"/>
	<ellipse class="st4" cx="313.9" cy="356.9" rx="1.3" ry="1.3"/>
	<ellipse class="st4" cx="324.9" cy="356.9" rx="1.3" ry="1.3"/>
	<ellipse class="st4" cx="335.9" cy="356.9" rx="1.3" ry="1.3"/>
	<ellipse class="st4" cx="269.8" cy="368" rx="1.3" ry="1.3"/>
	<ellipse class="st4" cx="280.8" cy="368" rx="1.3" ry="1.3"/>
	<ellipse class="st4" cx="291.8" cy="368" rx="1.3" ry="1.3"/>
	<ellipse class="st4" cx="302.9" cy="368" rx="1.3" ry="1.3"/>
	<ellipse class="st4" cx="313.9" cy="368" rx="1.3" ry="1.3"/>
	<ellipse class="st4" cx="324.9" cy="368" rx="1.3" ry="1.3"/>
	<ellipse class="st4" cx="335.9" cy="368" rx="1.3" ry="1.3"/>
	<ellipse class="st4" cx="269.8" cy="379.1" rx="1.3" ry="1.3"/>
	<ellipse class="st4" cx="280.8" cy="379.1" rx="1.3" ry="1.3"/>
	<ellipse class="st4" cx="291.8" cy="379.1" rx="1.3" ry="1.3"/>
	<ellipse class="st4" cx="302.9" cy="379.1" rx="1.3" ry="1.3"/>
	<ellipse class="st4" cx="313.9" cy="379.1" rx="1.3" ry="1.3"/>
	<ellipse class="st4" cx="324.9" cy="379.1" rx="1.3" ry="1.3"/>
	<ellipse class="st4" cx="335.9" cy="379.1" rx="1.3" ry="1.3"/>
	<ellipse class="st4" cx="269.8" cy="390.3" rx="1.3" ry="1.3"/>
	<ellipse class="st4" cx="280.8" cy="390.3" rx="1.3" ry="1.3"/>
	<ellipse class="st4" cx="291.8" cy="390.3" rx="1.3" ry="1.3"/>
	<ellipse class="st4" cx="302.9" cy="390.3" rx="1.3" ry="1.3"/>
	<ellipse class="st4" cx="313.9" cy="390.3" rx="1.3" ry="1.3"/>
	<ellipse class="st4" cx="324.9" cy="390.3" rx="1.3" ry="1.3"/>
	<ellipse class="st4" cx="335.9" cy="390.3" rx="1.3" ry="1.3"/>
</g>
<g>
	<ellipse class="st4" cx="728.3" cy="655.9" rx="1.3" ry="1.3"/>
	<ellipse class="st4" cx="728.3" cy="667" rx="1.3" ry="1.3"/>
	<ellipse class="st4" cx="728.3" cy="678.1" rx="1.3" ry="1.3"/>
	<ellipse class="st4" cx="728.3" cy="689.3" rx="1.3" ry="1.3"/>
	<ellipse class="st4" cx="728.3" cy="700.4" rx="1.3" ry="1.3"/>
	<ellipse class="st4" cx="728.3" cy="711.5" rx="1.3" ry="1.3"/>
	<ellipse class="st4" cx="728.3" cy="722.7" rx="1.3" ry="1.3"/>
	<ellipse class="st4" cx="717.3" cy="655.9" rx="1.3" ry="1.3"/>
	<ellipse class="st4" cx="717.3" cy="667" rx="1.3" ry="1.3"/>
	<ellipse class="st4" cx="717.3" cy="678.1" rx="1.3" ry="1.3"/>
	<ellipse class="st4" cx="717.3" cy="689.3" rx="1.3" ry="1.3"/>
	<ellipse class="st4" cx="717.3" cy="700.4" rx="1.3" ry="1.3"/>
	<ellipse class="st4" cx="717.3" cy="711.5" rx="1.3" ry="1.3"/>
	<ellipse class="st4" cx="717.3" cy="722.7" rx="1.3" ry="1.3"/>
	<ellipse class="st4" cx="706.2" cy="655.9" rx="1.3" ry="1.3"/>
	<ellipse class="st4" cx="706.2" cy="667" rx="1.3" ry="1.3"/>
	<ellipse class="st4" cx="706.2" cy="678.1" rx="1.3" ry="1.3"/>
	<ellipse class="st4" cx="706.2" cy="689.3" rx="1.3" ry="1.3"/>
	<ellipse class="st4" cx="706.2" cy="700.4" rx="1.3" ry="1.3"/>
	<ellipse class="st4" cx="706.2" cy="711.5" rx="1.3" ry="1.3"/>
	<ellipse class="st4" cx="706.2" cy="722.7" rx="1.3" ry="1.3"/>
	<ellipse class="st4" cx="695.2" cy="655.9" rx="1.3" ry="1.3"/>
	<ellipse class="st4" cx="695.2" cy="667" rx="1.3" ry="1.3"/>
	<ellipse class="st4" cx="695.2" cy="678.1" rx="1.3" ry="1.3"/>
	<ellipse class="st4" cx="695.2" cy="689.3" rx="1.3" ry="1.3"/>
	<ellipse class="st4" cx="695.2" cy="700.4" rx="1.3" ry="1.3"/>
	<ellipse class="st4" cx="695.2" cy="711.5" rx="1.3" ry="1.3"/>
	<ellipse class="st4" cx="695.2" cy="722.7" rx="1.3" ry="1.3"/>
	<ellipse class="st4" cx="684.2" cy="655.9" rx="1.3" ry="1.3"/>
	<ellipse class="st4" cx="684.2" cy="667" rx="1.3" ry="1.3"/>
	<ellipse class="st4" cx="684.2" cy="678.1" rx="1.3" ry="1.3"/>
	<ellipse class="st4" cx="684.2" cy="689.3" rx="1.3" ry="1.3"/>
	<ellipse class="st4" cx="684.2" cy="700.4" rx="1.3" ry="1.3"/>
	<ellipse class="st4" cx="684.2" cy="711.5" rx="1.3" ry="1.3"/>
	<ellipse class="st4" cx="684.2" cy="722.7" rx="1.3" ry="1.3"/>
	<ellipse class="st4" cx="673.2" cy="655.9" rx="1.3" ry="1.3"/>
	<ellipse class="st4" cx="673.2" cy="667" rx="1.3" ry="1.3"/>
	<ellipse class="st4" cx="673.2" cy="678.1" rx="1.3" ry="1.3"/>
	<ellipse class="st4" cx="673.2" cy="689.3" rx="1.3" ry="1.3"/>
	<ellipse class="st4" cx="673.2" cy="700.4" rx="1.3" ry="1.3"/>
	<ellipse class="st4" cx="673.2" cy="711.5" rx="1.3" ry="1.3"/>
	<ellipse class="st4" cx="673.2" cy="722.7" rx="1.3" ry="1.3"/>
	<ellipse class="st4" cx="662.1" cy="655.9" rx="1.3" ry="1.3"/>
	<ellipse class="st4" cx="662.1" cy="667" rx="1.3" ry="1.3"/>
	<ellipse class="st4" cx="662.1" cy="678.1" rx="1.3" ry="1.3"/>
	<ellipse class="st4" cx="662.1" cy="689.3" rx="1.3" ry="1.3"/>
	<ellipse class="st4" cx="662.1" cy="700.4" rx="1.3" ry="1.3"/>
	<ellipse class="st4" cx="662.1" cy="711.5" rx="1.3" ry="1.3"/>
	<ellipse class="st4" cx="662.1" cy="722.7" rx="1.3" ry="1.3"/>
	<ellipse class="st4" cx="651.1" cy="655.9" rx="1.3" ry="1.3"/>
	<ellipse class="st4" cx="651.1" cy="667" rx="1.3" ry="1.3"/>
	<ellipse class="st4" cx="651.1" cy="678.1" rx="1.3" ry="1.3"/>
	<ellipse class="st4" cx="651.1" cy="689.3" rx="1.3" ry="1.3"/>
	<ellipse class="st4" cx="651.1" cy="700.4" rx="1.3" ry="1.3"/>
	<ellipse class="st4" cx="651.1" cy="711.5" rx="1.3" ry="1.3"/>
	<ellipse class="st4" cx="651.1" cy="722.7" rx="1.3" ry="1.3"/>
	<ellipse class="st4" cx="640.1" cy="655.9" rx="1.3" ry="1.3"/>
	<ellipse class="st4" cx="640.1" cy="667" rx="1.3" ry="1.3"/>
	<ellipse class="st4" cx="640.1" cy="678.1" rx="1.3" ry="1.3"/>
	<ellipse class="st4" cx="640.1" cy="689.3" rx="1.3" ry="1.3"/>
	<ellipse class="st4" cx="640.1" cy="700.4" rx="1.3" ry="1.3"/>
	<ellipse class="st4" cx="640.1" cy="711.5" rx="1.3" ry="1.3"/>
	<ellipse class="st4" cx="640.1" cy="722.7" rx="1.3" ry="1.3"/>
	<ellipse class="st4" cx="629.1" cy="655.9" rx="1.3" ry="1.3"/>
	<ellipse class="st4" cx="629.1" cy="667" rx="1.3" ry="1.3"/>
	<ellipse class="st4" cx="629.1" cy="678.1" rx="1.3" ry="1.3"/>
	<ellipse class="st4" cx="629.1" cy="689.3" rx="1.3" ry="1.3"/>
	<ellipse class="st4" cx="629.1" cy="700.4" rx="1.3" ry="1.3"/>
	<ellipse class="st4" cx="629.1" cy="711.5" rx="1.3" ry="1.3"/>
	<ellipse class="st4" cx="629.1" cy="722.7" rx="1.3" ry="1.3"/>
	<ellipse class="st4" cx="618.1" cy="655.9" rx="1.3" ry="1.3"/>
	<ellipse class="st4" cx="618.1" cy="667" rx="1.3" ry="1.3"/>
	<ellipse class="st4" cx="618.1" cy="678.1" rx="1.3" ry="1.3"/>
	<ellipse class="st4" cx="618.1" cy="689.3" rx="1.3" ry="1.3"/>
	<ellipse class="st4" cx="618.1" cy="700.4" rx="1.3" ry="1.3"/>
	<ellipse class="st4" cx="618.1" cy="711.5" rx="1.3" ry="1.3"/>
	<ellipse class="st4" cx="618.1" cy="722.7" rx="1.3" ry="1.3"/>
	<ellipse class="st4" cx="607" cy="655.9" rx="1.3" ry="1.3"/>
	<ellipse class="st4" cx="607" cy="667" rx="1.3" ry="1.3"/>
	<ellipse class="st4" cx="607" cy="678.1" rx="1.3" ry="1.3"/>
	<ellipse class="st4" cx="607" cy="689.3" rx="1.3" ry="1.3"/>
	<ellipse class="st4" cx="607" cy="700.4" rx="1.3" ry="1.3"/>
	<ellipse class="st4" cx="607" cy="711.5" rx="1.3" ry="1.3"/>
	<ellipse class="st4" cx="607" cy="722.7" rx="1.3" ry="1.3"/>
	<ellipse class="st4" cx="596" cy="655.9" rx="1.3" ry="1.3"/>
	<ellipse class="st4" cx="596" cy="667" rx="1.3" ry="1.3"/>
	<ellipse class="st4" cx="596" cy="678.1" rx="1.3" ry="1.3"/>
	<ellipse class="st4" cx="596" cy="689.3" rx="1.3" ry="1.3"/>
	<ellipse class="st4" cx="596" cy="700.4" rx="1.3" ry="1.3"/>
	<ellipse class="st4" cx="596" cy="711.5" rx="1.3" ry="1.3"/>
	<ellipse class="st4" cx="596" cy="722.7" rx="1.3" ry="1.3"/>
	<ellipse class="st4" cx="585" cy="655.9" rx="1.3" ry="1.3"/>
	<ellipse class="st4" cx="585" cy="667" rx="1.3" ry="1.3"/>
	<ellipse class="st4" cx="585" cy="678.1" rx="1.3" ry="1.3"/>
	<ellipse class="st4" cx="585" cy="689.3" rx="1.3" ry="1.3"/>
	<ellipse class="st4" cx="585" cy="700.4" rx="1.3" ry="1.3"/>
	<ellipse class="st4" cx="585" cy="711.5" rx="1.3" ry="1.3"/>
	<ellipse class="st4" cx="585" cy="722.7" rx="1.3" ry="1.3"/>
	<ellipse class="st4" cx="574" cy="655.9" rx="1.3" ry="1.3"/>
	<ellipse class="st4" cx="574" cy="667" rx="1.3" ry="1.3"/>
	<ellipse class="st4" cx="574" cy="678.1" rx="1.3" ry="1.3"/>
	<ellipse class="st4" cx="574" cy="689.3" rx="1.3" ry="1.3"/>
	<ellipse class="st4" cx="574" cy="700.4" rx="1.3" ry="1.3"/>
	<ellipse class="st4" cx="574" cy="711.5" rx="1.3" ry="1.3"/>
	<ellipse class="st4" cx="574" cy="722.7" rx="1.3" ry="1.3"/>
	<ellipse class="st4" cx="562.9" cy="655.9" rx="1.3" ry="1.3"/>
	<ellipse class="st4" cx="562.9" cy="667" rx="1.3" ry="1.3"/>
	<ellipse class="st4" cx="562.9" cy="678.1" rx="1.3" ry="1.3"/>
	<ellipse class="st4" cx="562.9" cy="689.3" rx="1.3" ry="1.3"/>
	<ellipse class="st4" cx="562.9" cy="700.4" rx="1.3" ry="1.3"/>
	<ellipse class="st4" cx="562.9" cy="711.5" rx="1.3" ry="1.3"/>
	<ellipse class="st4" cx="562.9" cy="722.7" rx="1.3" ry="1.3"/>
	<ellipse class="st4" cx="551.9" cy="655.9" rx="1.3" ry="1.3"/>
	<ellipse class="st4" cx="551.9" cy="667" rx="1.3" ry="1.3"/>
	<ellipse class="st4" cx="551.9" cy="678.1" rx="1.3" ry="1.3"/>
	<ellipse class="st4" cx="551.9" cy="689.3" rx="1.3" ry="1.3"/>
	<ellipse class="st4" cx="551.9" cy="700.4" rx="1.3" ry="1.3"/>
	<ellipse class="st4" cx="551.9" cy="711.5" rx="1.3" ry="1.3"/>
	<ellipse class="st4" cx="551.9" cy="722.7" rx="1.3" ry="1.3"/>
	<ellipse class="st4" cx="540.9" cy="655.9" rx="1.3" ry="1.3"/>
	<ellipse class="st4" cx="540.9" cy="667" rx="1.3" ry="1.3"/>
	<ellipse class="st4" cx="540.9" cy="678.1" rx="1.3" ry="1.3"/>
	<ellipse class="st4" cx="540.9" cy="689.3" rx="1.3" ry="1.3"/>
	<ellipse class="st4" cx="540.9" cy="700.4" rx="1.3" ry="1.3"/>
	<ellipse class="st4" cx="540.9" cy="711.5" rx="1.3" ry="1.3"/>
	<ellipse class="st4" cx="540.9" cy="722.7" rx="1.3" ry="1.3"/>
</g>
<g>
	<ellipse cx="549.8" cy="232.6" rx="6.3" ry="6.4"/>
	<ellipse class="st2" cx="304.6" cy="417.1" rx="9.9" ry="10"/>
	<ellipse class="st5" cx="299" cy="545.1" rx="2.8" ry="2.8"/>
	<ellipse class="st2" cx="366.8" cy="644" rx="10.3" ry="10.4"/>
	<ellipse class="st2" cx="469" cy="680" rx="4.8" ry="4.8"/>
	<ellipse class="st2" cx="753.1" cy="565.2" rx="5.9" ry="6"/>
	<ellipse class="st5" cx="712.6" cy="320.2" rx="2" ry="2"/>
	<ellipse class="st2" cx="770.1" cy="275.8" rx="12.7" ry="12.8"/>
	<ellipse cx="358.4" cy="325.1" rx="3.6" ry="3.6"/>
	<ellipse cx="323.2" cy="512.7" rx="11.1" ry="11.2"/>
	<ellipse cx="274.8" cy="601.6" rx="7.1" ry="7.2"/>
	<ellipse cx="524.8" cy="654" rx="2.8" ry="2.8"/>
	<ellipse cx="673.4" cy="680.8" rx="6.3" ry="6.4"/>
	<ellipse cx="761.8" cy="633.2" rx="2.8" ry="2.8"/>
	<ellipse cx="756.6" cy="353.5" rx="5.5" ry="5.6"/>
	<ellipse cx="680.6" cy="250.6" rx="7.3" ry="7.4"/>
</g>
<g class="st6">
	<path class="st2" d="M372.3,332c0,6.5-1.1,12.4-3.3,17.6c-2.2,5.2-5.1,9.7-8.7,13.4c-3.6,3.7-7.9,6.5-12.7,8.5c-4.8,2-9.9,3-15.1,3
		c-5.7,0-11-1-15.8-3c-4.8-2-9-4.8-12.5-8.5c-3.5-3.7-6.3-8.1-8.3-13.4c-2-5.2-3-11.1-3-17.6c0-6.7,1-12.7,3-18.1
		c2-5.4,4.7-9.9,8.3-13.7c3.5-3.7,7.7-6.6,12.5-8.6c4.8-2,10.1-3,15.8-3c5.7,0,11,1,15.9,3c4.9,2,9.1,4.9,12.7,8.6
		c3.6,3.7,6.3,8.3,8.3,13.7C371.3,319.3,372.3,325.4,372.3,332z M429.5,295c1-1.2,2.2-2.3,3.6-3.2c1.4-1,3.3-1.4,5.9-1.4h21.4
		L332.7,458c-1,1.3-2.3,2.3-3.7,3.2c-1.4,0.8-3.2,1.2-5.2,1.2h-21.9L429.5,295z M349.7,332c0-4.6-0.5-8.4-1.4-11.5
		c-0.9-3.1-2.1-5.6-3.7-7.5c-1.5-1.9-3.4-3.3-5.5-4.1c-2.1-0.8-4.3-1.2-6.7-1.2s-4.6,0.4-6.7,1.2c-2.1,0.8-3.8,2.2-5.3,4.1
		c-1.5,1.9-2.6,4.4-3.5,7.5c-0.9,3.1-1.3,6.9-1.3,11.5c0,4.4,0.4,8.1,1.3,11.1c0.9,3,2,5.4,3.5,7.2c1.5,1.8,3.2,3.1,5.3,3.9
		c2.1,0.8,4.3,1.2,6.7,1.2s4.6-0.4,6.7-1.2c2.1-0.8,3.9-2.1,5.5-3.9c1.5-1.8,2.8-4.2,3.7-7.2C349.3,340.2,349.7,336.5,349.7,332z
		 M469.5,421.9c0,6.5-1.1,12.4-3.3,17.6c-2.2,5.2-5.1,9.7-8.7,13.4c-3.6,3.7-7.9,6.5-12.7,8.6c-4.8,2-9.9,3-15.1,3
		c-5.7,0-11-1-15.8-3c-4.8-2-9-4.9-12.5-8.6c-3.5-3.7-6.3-8.1-8.3-13.4c-2-5.2-3-11.1-3-17.6c0-6.7,1-12.7,3-18.1
		c2-5.4,4.7-9.9,8.3-13.7c3.5-3.7,7.7-6.6,12.5-8.6c4.8-2,10.1-3,15.8-3c5.7,0,11,1,15.9,3c4.9,2,9.1,4.9,12.6,8.6
		c3.5,3.7,6.3,8.3,8.3,13.7C468.5,409.2,469.5,415.3,469.5,421.9z M446.8,421.9c0-4.6-0.4-8.4-1.3-11.5c-0.9-3.1-2.1-5.6-3.6-7.5
		c-1.5-1.9-3.4-3.3-5.5-4.1c-2.1-0.8-4.3-1.2-6.7-1.2c-2.4,0-4.6,0.4-6.7,1.2c-2.1,0.8-3.8,2.2-5.4,4.1c-1.5,1.9-2.7,4.4-3.5,7.5
		c-0.8,3.1-1.2,6.9-1.2,11.5c0,4.4,0.4,8.2,1.2,11.2c0.8,3,2,5.4,3.5,7.3c1.5,1.8,3.3,3.1,5.4,3.9c2.1,0.8,4.3,1.2,6.7,1.2
		c2.4,0,4.6-0.4,6.7-1.2c2.1-0.8,3.9-2.1,5.5-3.9c1.5-1.8,2.8-4.2,3.6-7.3C446.3,430.1,446.8,426.4,446.8,421.9z"/>
	<path class="st2" d="M491.5,338.3c1.2-8.2,3.5-15.5,6.9-21.7c3.4-6.2,7.7-11.4,12.8-15.6c5.1-4.2,11-7.3,17.6-9.4
		c6.6-2.1,13.7-3.2,21.3-3.2c7.9,0,15.1,1.1,21.5,3.4c6.4,2.3,11.8,5.4,16.4,9.4c4.5,4,8,8.7,10.4,14.1c2.4,5.4,3.6,11.2,3.6,17.5
		c0,5.5-0.6,10.3-1.8,14.4c-1.2,4.2-3,7.8-5.3,10.9c-2.3,3.1-5.2,5.7-8.6,7.8c-3.4,2.1-7.3,3.9-11.5,5.4c10.3,3.3,18,8.2,23.1,14.9
		c5.1,6.7,7.6,15,7.6,25.1c0,8.6-1.6,16.1-4.8,22.7c-3.2,6.6-7.5,12.1-12.8,16.6c-5.4,4.5-11.6,7.9-18.7,10.2
		c-7.1,2.3-14.6,3.4-22.5,3.4c-8.6,0-16.2-1-22.6-3s-12-4.9-16.8-8.8c-4.8-3.9-8.8-8.6-12.1-14.3c-3.3-5.6-6.2-12.1-8.6-19.5l13-5.4
		c3.4-1.4,6.6-1.8,9.6-1.1c3,0.7,5.1,2.3,6.5,4.8c1.4,2.8,3,5.5,4.7,8.2c1.7,2.7,3.7,5.1,6.1,7.2c2.4,2.1,5.2,3.8,8.4,5.1
		c3.2,1.3,7,2,11.5,2c5,0,9.4-0.8,13.1-2.4c3.7-1.6,6.8-3.7,9.3-6.4c2.5-2.6,4.4-5.5,5.6-8.7c1.2-3.2,1.8-6.4,1.8-9.7
		c0-4.1-0.4-7.9-1.3-11.2c-0.9-3.4-2.7-6.2-5.5-8.6c-2.8-2.4-6.8-4.2-12-5.6c-5.2-1.3-12.2-2-20.9-2v-20.9c7.2-0.1,13.2-0.8,18-2
		c4.8-1.3,8.5-3,11.4-5.3c2.8-2.3,4.8-5,5.9-8.1c1.1-3.2,1.7-6.7,1.7-10.5c0-8.1-2.3-14.2-6.8-18.4c-4.5-4.2-10.5-6.3-18.1-6.3
		c-3.5,0-6.7,0.5-9.6,1.5c-2.9,1-5.6,2.4-7.9,4.2c-2.3,1.8-4.3,3.9-5.9,6.2c-1.6,2.4-2.8,5-3.6,7.8c-1.3,3.6-3.1,6.1-5.3,7.3
		c-2.2,1.2-5.3,1.5-9.2,0.8L491.5,338.3z"/>
	<path class="st2" d="M748.6,376.4c0,15-1.6,28-4.8,39.1c-3.2,11.1-7.7,20.2-13.3,27.4c-5.7,7.2-12.4,12.6-20.1,16.1
		c-7.7,3.5-16.1,5.3-25,5.3c-9,0-17.3-1.8-24.9-5.3c-7.7-3.5-14.3-8.9-19.9-16.1c-5.6-7.2-10-16.4-13.2-27.4
		c-3.2-11.1-4.8-24.1-4.8-39.1c0-15.1,1.6-28.1,4.8-39.1c3.2-11,7.6-20.1,13.2-27.4c5.6-7.2,12.3-12.6,19.9-16.1
		c7.6-3.5,16-5.3,24.9-5.3c9,0,17.3,1.8,25,5.3c7.7,3.5,14.4,8.9,20.1,16.1c5.7,7.2,10.1,16.3,13.3,27.4
		C747,348.3,748.6,361.3,748.6,376.4z M718.3,376.4c0-12.4-0.9-22.8-2.7-30.9c-1.8-8.2-4.3-14.7-7.3-19.5
		c-3.1-4.8-6.6-8.2-10.5-10.2c-4-1.9-8.1-2.9-12.4-2.9c-4.2,0-8.3,1-12.2,2.9c-3.9,1.9-7.4,5.3-10.4,10.2c-3,4.8-5.4,11.3-7.2,19.5
		c-1.8,8.2-2.7,18.5-2.7,30.9c0,12.4,0.9,22.8,2.7,30.9c1.8,8.2,4.2,14.7,7.2,19.5c3,4.8,6.5,8.2,10.4,10.2c3.9,1.9,8,2.9,12.2,2.9
		c4.3,0,8.4-1,12.4-2.9c4-1.9,7.5-5.3,10.5-10.2c3.1-4.8,5.5-11.3,7.3-19.5C717.4,399.1,718.3,388.8,718.3,376.4z"/>
</g>
<g class="st6">
	<path class="st7" d="M258.4,492.2c0,1.4-0.3,2.8-0.9,4.1c-0.6,1.3-1.4,2.4-2.4,3.4c-1,1-2.2,1.8-3.5,2.3c-1.3,0.6-2.8,0.9-4.3,0.9
		c-1.4,0-2.7-0.3-4-0.9c-1.3-0.6-2.4-1.4-3.4-2.3c-1-1-1.8-2.1-2.3-3.4s-0.9-2.6-0.9-4.1c0-1.5,0.3-2.9,0.9-4.2
		c0.6-1.3,1.4-2.5,2.3-3.5c1-1,2.1-1.8,3.4-2.3s2.6-0.9,4-0.9c1.5,0,2.9,0.3,4.3,0.9c1.3,0.6,2.5,1.4,3.5,2.3c1,1,1.8,2.1,2.4,3.5
		C258.1,489.3,258.4,490.7,258.4,492.2z M257,614.6h-19.5V510.1H257V614.6z"/>
	<path class="st7" d="M368.4,510.1v104.4h-10c-1.5,0-2.8-0.3-3.9-0.8c-1-0.5-2-1.4-3-2.6L297,541.6c0.3,3.2,0.4,6.1,0.4,8.8v64.1
		h-17.1V510.1h10.2c0.8,0,1.5,0,2.1,0.1c0.6,0.1,1.1,0.2,1.6,0.4c0.5,0.2,0.9,0.5,1.3,0.9c0.4,0.4,0.9,1,1.4,1.6l54.7,69.9
		c-0.1-1.7-0.3-3.3-0.4-5c-0.1-1.6-0.1-3.2-0.1-4.5v-63.5H368.4z"/>
	<path class="st7" d="M484.3,562.3c0,7.7-1.3,14.7-3.8,21.1c-2.6,6.4-6.1,11.9-10.8,16.5s-10.2,8.2-16.7,10.8
		c-6.5,2.6-13.7,3.8-21.7,3.8h-39.8V510.1h39.8c7.9,0,15.2,1.3,21.7,3.9c6.5,2.6,12.1,6.2,16.7,10.8c4.6,4.6,8.2,10.1,10.8,16.5
		C483,547.7,484.3,554.7,484.3,562.3z M464.4,562.3c0-5.7-0.8-10.9-2.3-15.4c-1.5-4.5-3.7-8.4-6.6-11.6c-2.9-3.2-6.3-5.6-10.4-7.3
		c-4.1-1.7-8.7-2.5-13.8-2.5h-20.3v73.5h20.3c5.1,0,9.7-0.8,13.8-2.5c4.1-1.7,7.5-4.1,10.4-7.3c2.9-3.2,5.1-7,6.6-11.6
		C463.6,573.2,464.4,568.1,464.4,562.3z"/>
	<path class="st7" d="M522.3,492.2c0,1.4-0.3,2.8-0.9,4.1c-0.6,1.3-1.4,2.4-2.4,3.4c-1,1-2.2,1.8-3.5,2.3c-1.3,0.6-2.8,0.9-4.3,0.9
		c-1.4,0-2.7-0.3-4-0.9c-1.3-0.6-2.4-1.4-3.4-2.3c-1-1-1.8-2.1-2.3-3.4c-0.6-1.3-0.9-2.6-0.9-4.1c0-1.5,0.3-2.9,0.9-4.2
		c0.6-1.3,1.4-2.5,2.3-3.5c1-1,2.1-1.8,3.4-2.3s2.6-0.9,4-0.9c1.5,0,2.9,0.3,4.3,0.9c1.3,0.6,2.5,1.4,3.5,2.3c1,1,1.8,2.1,2.4,3.5
		C522,489.3,522.3,490.7,522.3,492.2z M520.9,614.6h-19.5V510.1h19.5V614.6z"/>
	<path class="st7" d="M625.8,614.6h-17.5c-3.3,0-5.7-1.3-7.2-3.9l-21.9-33.4c-0.8-1.3-1.7-2.1-2.7-2.7c-1-0.5-2.4-0.8-4.4-0.8h-8.3
		v40.8h-19.4V510.1h31.8c7.1,0,13.2,0.7,18.2,2.2c5.1,1.5,9.2,3.5,12.5,6.2c3.3,2.6,5.6,5.8,7.2,9.5c1.5,3.7,2.3,7.7,2.3,12.2
		c0,3.5-0.5,6.8-1.6,10c-1,3.1-2.5,6-4.5,8.5c-1.9,2.6-4.4,4.8-7.2,6.7c-2.9,1.9-6.1,3.4-9.8,4.5c1.3,0.7,2.4,1.6,3.5,2.6
		c1.1,1,2,2.2,2.9,3.5L625.8,614.6z M575.8,559.8c3.7,0,6.8-0.5,9.6-1.4c2.7-0.9,5-2.2,6.7-3.8c1.8-1.6,3.1-3.5,3.9-5.7
		c0.9-2.2,1.3-4.6,1.3-7.3c0-5.3-1.7-9.4-5.2-12.2c-3.5-2.8-8.8-4.3-16-4.3h-12.4v34.7H575.8z"/>
	<path class="st7" d="M658,492.2c0,1.4-0.3,2.8-0.9,4.1c-0.6,1.3-1.4,2.4-2.4,3.4c-1,1-2.2,1.8-3.5,2.3c-1.3,0.6-2.8,0.9-4.3,0.9
		c-1.4,0-2.7-0.3-4-0.9c-1.3-0.6-2.4-1.4-3.4-2.3c-1-1-1.8-2.1-2.3-3.4c-0.6-1.3-0.9-2.6-0.9-4.1c0-1.5,0.3-2.9,0.9-4.2
		c0.6-1.3,1.4-2.5,2.3-3.5c1-1,2.1-1.8,3.4-2.3s2.6-0.9,4-0.9c1.5,0,2.9,0.3,4.3,0.9c1.3,0.6,2.5,1.4,3.5,2.3c1,1,1.8,2.1,2.4,3.5
		C657.7,489.3,658,490.7,658,492.2z M656.6,614.6h-19.5V510.1h19.5V614.6z"/>
	<path class="st7" d="M793.1,510.1v104.4H776v-67.4c0-2.7,0.1-5.6,0.4-8.7l-31.6,59.3c-1.5,2.8-3.8,4.3-6.9,4.3h-2.7
		c-3.1,0-5.4-1.4-6.9-4.3l-31.9-59.5c0.1,1.6,0.3,3.2,0.4,4.7c0.1,1.5,0.1,3,0.1,4.3v67.4h-17.1V510.1h14.7c0.9,0,1.6,0,2.2,0.1
		c0.6,0,1.2,0.2,1.7,0.4c0.5,0.2,1,0.5,1.4,0.9c0.4,0.4,0.8,1,1.2,1.7l31.3,58c0.8,1.5,1.6,3.1,2.3,4.8c0.7,1.6,1.4,3.3,2.1,5.1
		c0.7-1.8,1.4-3.5,2.1-5.2c0.7-1.7,1.5-3.3,2.3-4.8l30.8-57.8c0.4-0.7,0.8-1.3,1.2-1.7c0.4-0.4,0.9-0.7,1.4-0.9
		c0.5-0.2,1.1-0.3,1.7-0.4c0.6,0,1.4-0.1,2.2-0.1H793.1z"/>
</g>
<g class="st6">
	<path class="st7" d="M405.3,155.7c0,0.6-0.1,1.1-0.3,1.6c-0.2,0.5-0.5,0.9-0.9,1.3c-0.4,0.4-0.9,0.7-1.4,0.9
		c-0.5,0.2-1.1,0.3-1.6,0.3c-0.6,0-1.1-0.1-1.6-0.3c-0.5-0.2-0.9-0.5-1.3-0.9c-0.4-0.4-0.7-0.8-0.9-1.3c-0.2-0.5-0.3-1-0.3-1.6
		c0-0.6,0.1-1.1,0.3-1.6c0.2-0.5,0.5-1,0.9-1.4c0.4-0.4,0.8-0.7,1.3-0.9s1-0.3,1.6-0.3c0.6,0,1.1,0.1,1.6,0.3s1,0.5,1.4,0.9
		c0.4,0.4,0.7,0.8,0.9,1.4C405.2,154.6,405.3,155.1,405.3,155.7z M404.6,207.4h-7.2v-44h7.2V207.4z"/>
	<path class="st7" d="M440.5,201.4v6h-25.4v-44h7.2v38H440.5z"/>
	<path class="st7" d="M453.8,182.2h2c0.8,0,1.4-0.1,1.9-0.3s0.9-0.6,1.3-1l13.3-15.9c0.5-0.6,1-1,1.5-1.2s1.1-0.4,1.9-0.4h6.1
		l-15.7,18.6c-0.4,0.5-0.8,1-1.2,1.3c-0.4,0.4-0.8,0.6-1.3,0.9c0.6,0.2,1.2,0.5,1.7,0.9c0.5,0.4,1,0.9,1.4,1.6l16.3,20.7h-6.2
		c-0.4,0-0.8,0-1.1-0.1c-0.3-0.1-0.6-0.2-0.8-0.3s-0.4-0.3-0.6-0.5c-0.2-0.2-0.3-0.4-0.5-0.6L460,189.1c-0.2-0.3-0.4-0.5-0.6-0.7
		c-0.2-0.2-0.4-0.3-0.7-0.5c-0.3-0.1-0.6-0.2-0.9-0.3c-0.3,0-0.8-0.1-1.2-0.1h-2.6v19.7h-7.2v-44h7.2V182.2z"/>
	<path class="st7" d="M501.6,175.5c0.3-2.1,0.9-3.9,1.7-5.5c0.8-1.6,1.9-2.9,3.2-3.9c1.3-1,2.8-1.8,4.4-2.4c1.7-0.5,3.5-0.8,5.4-0.8
		c2,0,3.7,0.3,5.3,0.8c1.6,0.6,3,1.3,4.1,2.3c1.2,1,2,2.2,2.7,3.6c0.6,1.4,0.9,2.9,0.9,4.6c0,1.4-0.2,2.6-0.5,3.7
		c-0.3,1.1-0.8,2-1.4,2.8c-0.6,0.8-1.4,1.5-2.3,2c-0.9,0.5-1.9,1-3,1.4c2.7,0.8,4.8,2.1,6.1,3.8c1.4,1.7,2,3.9,2,6.6
		c0,2.1-0.4,4-1.2,5.7c-0.8,1.7-1.9,3-3.2,4.2c-1.4,1.1-2.9,2-4.7,2.6c-1.8,0.6-3.7,0.9-5.7,0.9c-2.3,0-4.2-0.3-5.9-0.8
		s-3.1-1.3-4.3-2.3c-1.2-1-2.2-2.2-3-3.7c-0.8-1.4-1.5-3-2-4.8l2.8-1.2c0.8-0.3,1.5-0.4,2.2-0.3c0.7,0.1,1.2,0.5,1.5,1.1
		c0.3,0.7,0.7,1.4,1.1,2.1c0.4,0.7,0.9,1.4,1.6,2c0.6,0.6,1.4,1.1,2.4,1.6s2.1,0.6,3.5,0.6c1.4,0,2.6-0.2,3.7-0.7s1.9-1,2.6-1.8
		s1.2-1.5,1.6-2.4c0.3-0.9,0.5-1.8,0.5-2.7c0-1.1-0.1-2.1-0.4-3s-0.8-1.7-1.5-2.4s-1.8-1.2-3.2-1.5s-3.2-0.6-5.5-0.6v-4.7
		c1.9,0,3.4-0.2,4.7-0.6c1.3-0.4,2.3-0.8,3.1-1.5c0.8-0.6,1.3-1.4,1.7-2.2c0.3-0.9,0.5-1.8,0.5-2.9c0-1.1-0.2-2.1-0.5-3
		c-0.3-0.9-0.8-1.6-1.5-2.2c-0.6-0.6-1.4-1-2.2-1.3c-0.9-0.3-1.8-0.4-2.8-0.4c-1,0-1.9,0.1-2.8,0.4c-0.8,0.3-1.6,0.7-2.3,1.2
		c-0.7,0.5-1.2,1.1-1.7,1.8c-0.4,0.7-0.8,1.5-1,2.3c-0.3,0.8-0.7,1.4-1.1,1.7c-0.5,0.3-1.2,0.3-2.1,0.2L501.6,175.5z"/>
	<path class="st7" d="M588.7,207.4h-5.5c-0.6,0-1.1-0.2-1.5-0.5s-0.7-0.7-0.9-1.2l-3.7-9.7h-19l-3.7,9.7c-0.2,0.4-0.4,0.8-0.9,1.1
		c-0.4,0.3-0.9,0.5-1.5,0.5h-5.5l17.5-44h7.2L588.7,207.4z M575.1,190.9l-6.1-16.1c-0.5-1.2-1-2.8-1.5-4.7c-0.2,1-0.5,1.8-0.7,2.6
		s-0.5,1.5-0.7,2.1l-6.1,16.1H575.1z"/>
	<path class="st7" d="M607.2,190.1v17.2h-7.1v-17.2L584,163.4h6.3c0.6,0,1.1,0.2,1.5,0.5s0.7,0.7,0.9,1.2l9,15.8
		c0.4,0.8,0.8,1.5,1.1,2.3c0.3,0.7,0.6,1.4,0.9,2.1c0.2-0.7,0.5-1.4,0.8-2.1c0.3-0.7,0.7-1.5,1.1-2.2l9-15.8
		c0.2-0.4,0.5-0.8,0.9-1.1c0.4-0.3,0.9-0.5,1.5-0.5h6.3L607.2,190.1z"/>
</g>
</svg>
