<?xml version="1.0" encoding="utf-8"?>
<!-- Generator: Adobe Illustrator 21.0.0, SVG Export Plug-In . SVG Version: 6.00 Build 0)  -->
<svg version="1.1" id="Layer_1" xmlns="http://www.w3.org/2000/svg" xmlns:xlink="http://www.w3.org/1999/xlink" x="0px" y="0px"
	 viewBox="0 0 985.4 919.8" style="enable-background:new 0 0 985.4 919.8;" xml:space="preserve">
<style type="text/css">
	.st0{fill:#E6E7E8;}
	.st1{fill:#929497;}
	.st2{fill:#BBBDBF;}
	.st3{fill:#A6A8AB;}
	.st4{fill:#D0D2D3;}
	.st5{fill:#58595B;}
	.st6{fill:#249DC2;}
	.st7{fill:#56B8D5;}
	.st8{fill:#FFFFFF;}
	.st9{fill:#BB6A3C;}
	.st10{fill:#E7934D;}
	.st11{fill:#D6C2BF;}
	.st12{fill:#F8A35A;}
	.st13{fill:#FCBB5F;}
	.st14{fill:#F4D04C;}
	.st15{fill:#FCE66B;}
	.st16{fill:#CFA82E;}
	.st17{fill:#9B56A1;}
	.st18{fill:#91519F;}
	.st19{fill:#A663A7;}
	.st20{fill:#D9DBDC;}
	.st21{fill:#EDEDEE;}
	.st22{fill:#ADAFB1;}
	.st23{fill:#78C487;}
	.st24{fill:#92CD93;}
	.st25{fill:#73B65D;}
	.st26{fill:#E46261;}
	.st27{fill:#F27674;}
	.st28{fill:#B82B2E;}
	.st29{fill:#929ACC;}
	.st30{fill:#7382C0;}
	.st31{fill:#485AA7;}
</style>
<title>vds-indirim</title>
<g>
	<path class="st0" d="M16.9,814.9c0-8.7,143.7-15.8,320.9-15.8c177.2,0,314.4,10.3,314.4,19s-137.1,12.6-314.4,12.6
		C160.6,830.7,16.9,823.6,16.9,814.9z"/>
	<g>
		<rect x="121.8" y="698.9" class="st1" width="79.9" height="24.5"/>
		<rect x="470.4" y="698.9" class="st1" width="79.9" height="24.5"/>
		<path class="st2" d="M24.9,787.5v2.1c0,14,10.4,25.3,23.3,25.3h567.1c12.8,0,23.3-11.3,23.3-25.3v-2.1H24.9z"/>
		<polygon class="st3" points="89.2,705.9 589.1,705.9 638.5,787.5 24.9,787.5 		"/>
		<polygon class="st4" points="100.6,718.9 575.4,718.9 597.8,756.4 71,756.4 		"/>
		<polygon class="st4" points="288.5,760.6 365.9,760.6 374.1,780.7 277.7,780.7 		"/>
		<path class="st2" d="M596.9,687c0,11.1-3.9,11.9-14.6,11.9H97.1c-10.8,0-13.8-0.7-13.8-11.9V387.3c0-11.1,3-13.3,13.8-13.3h485.1
			c10.7,0,14.6,2.2,14.6,13.3V687z"/>
		<rect x="96.2" y="405" class="st5" width="487.8" height="274.7"/>
		<rect x="104.2" y="410.6" class="st6" width="471.7" height="263.5"/>
		<path class="st7" d="M379.9,550.5c-155.2,91.9-276,123.1-276,123.1l0.6-263.5l471.7,0.9C576.3,411.1,520.7,467.2,379.9,550.5z"/>
		<ellipse class="st1" cx="340.1" cy="389.3" rx="11.1" ry="11.1"/>
		<circle class="st6" cx="340.1" cy="389.3" r="8.9"/>
		<path class="st8" d="M332.9,389.3c0-4.1,3.4-7.5,7.7-7.5C344.8,381.8,332.9,393.4,332.9,389.3z"/>
	</g>
	<g>
		<polygon class="st9" points="443.5,659.4 192.8,582.6 239.5,430.3 490.2,507.1 		"/>
		<polygon class="st10" points="443.5,659.4 192.8,582.6 239.5,430.3 337.8,556.9 490.2,507.1 		"/>
		<path class="st11" d="M368.5,546.8l-18.1,7l-27.8-16.6l-5.2-6.1c-29.6,12.2-124.6,51.4-124.6,51.4l250.6,76.8
			C443.5,659.4,385.8,572.6,368.5,546.8z"/>
		<path class="st12" d="M317.4,539.1c-25.5,8.9-124.5,43.6-124.5,43.6l250.6,76.8c0,0-67-86.6-82.3-106.9
			C345.9,532.1,342.9,530.1,317.4,539.1z"/>
		<path class="st13" d="M363.2,558.6c26-10.6,127-51.5,127-51.5l-250.6-76.8c0,0,65,93,79.8,114.9
			C334.2,567.1,337.2,569.2,363.2,558.6z"/>
	</g>
	<g>
		
			<rect x="586.5" y="169.3" transform="matrix(0.5463 -0.8376 0.8376 0.5463 93.824 620.2776)" class="st14" width="65.9" height="108.5"/>
		<polygon class="st15" points="622,219.7 556,221.5 646.9,280.8 		"/>
		<polygon class="st15" points="613.5,232.7 592.1,166.3 683,225.6 		"/>
		<polygon class="st16" points="613.5,232.7 592.1,166.3 617.3,226.9 683,225.6 		"/>
	</g>
	<g>
		
			<rect x="420.6" y="282.9" transform="matrix(0.5464 -0.8375 0.8375 0.5464 -76.6479 532.8309)" class="st17" width="65.9" height="108.5"/>
		<polygon class="st18" points="456.1,333.3 390.1,335.1 481,394.4 		"/>
		<polygon class="st18" points="447.6,346.4 426.1,279.9 517,339.2 		"/>
		<polygon class="st19" points="447.6,346.4 426.1,279.9 451.4,340.5 517,339.2 		"/>
	</g>
	<g>
		
			<rect x="631.3" y="335.3" transform="matrix(7.457992e-02 -0.9972 0.9972 7.457992e-02 226.292 1022.9307)" class="st20" width="65.9" height="108.5"/>
		<polygon class="st21" points="664.6,385 607.7,418.4 715.9,426.5 		"/>
		<polygon class="st21" points="663.5,400.5 612.6,352.6 720.9,360.7 		"/>
		<polygon class="st22" points="663.5,400.5 612.6,352.6 664,393.5 720.9,360.7 		"/>
	</g>
	<g>
		
			<rect x="553.4" y="267.2" transform="matrix(0.9511 -0.3088 0.3088 0.9511 -61.3576 198.2964)" class="st23" width="85" height="51.6"/>
		<polygon class="st24" points="594.7,289.6 563.4,330.7 644.2,304.5 		"/>
		<polygon class="st24" points="598.5,301.2 547.5,281.6 628.3,255.3 		"/>
		<polygon class="st25" points="598.5,301.2 547.5,281.6 596.8,296 628.3,255.3 		"/>
	</g>
	<g>
		
			<rect x="757.8" y="264.9" transform="matrix(8.028634e-02 -0.9968 0.9968 8.028634e-02 414.3077 1063.7653)" class="st26" width="51.6" height="85"/>
		<polygon class="st27" points="783.9,303.8 739.2,329.7 823.9,336.5 		"/>
		<polygon class="st27" points="782.9,316 743.3,278.2 828,285 		"/>
		<polygon class="st28" points="782.9,316 743.3,278.2 783.3,310.5 828,285 		"/>
	</g>
	<g>
		
			<rect x="441.8" y="205.3" transform="matrix(0.9511 -0.3088 0.3088 0.9511 -46.605 158.1205)" class="st20" width="69" height="41.9"/>
		<polygon class="st21" points="475.3,223.5 449.9,256.9 515.5,235.6 		"/>
		<polygon class="st21" points="478.4,232.9 437,217 502.6,195.7 		"/>
		<polygon class="st22" points="478.4,232.9 437,217 477,228.7 502.6,195.7 		"/>
	</g>
	<g>
		
			<rect x="676.4" y="249.8" transform="matrix(0.9511 -0.3087 0.3087 0.9511 -48.8722 232.7247)" class="st20" width="69" height="41.9"/>
		<polygon class="st21" points="710,268 684.6,301.4 750.2,280.1 		"/>
		<polygon class="st21" points="713.1,277.4 671.7,261.5 737.3,240.2 		"/>
		<polygon class="st22" points="713.1,277.4 671.7,261.5 711.7,273.2 737.3,240.2 		"/>
	</g>
	<g>
		
			<rect x="797.3" y="70" transform="matrix(0.5464 -0.8375 0.8375 0.5464 272.6183 751.765)" class="st20" width="65.9" height="108.5"/>
		<polygon class="st21" points="832.8,120.4 766.8,122.2 857.7,181.5 		"/>
		<polygon class="st21" points="824.3,133.4 802.9,67 893.8,126.2 		"/>
		<polygon class="st22" points="824.3,133.4 802.9,67 828.1,127.6 893.8,126.2 		"/>
	</g>
	<g>
		
			<rect x="686.6" y="142" transform="matrix(0.9511 -0.3088 0.3088 0.9511 -16.1928 233.3013)" class="st29" width="85" height="51.6"/>
		<polygon class="st30" points="727.9,164.4 696.6,205.5 777.5,179.3 		"/>
		<polygon class="st30" points="731.7,176 680.7,156.4 761.5,130.1 		"/>
		<polygon class="st31" points="731.7,176 680.7,156.4 730,170.8 761.5,130.1 		"/>
	</g>
	<g>
		
			<rect x="900.7" y="159.7" transform="matrix(8.027852e-02 -0.9968 0.9968 8.027852e-02 650.6427 1109.5389)" class="st20" width="51.6" height="85"/>
		<polygon class="st21" points="926.9,198.6 882.1,224.5 966.9,231.3 		"/>
		<polygon class="st21" points="925.9,210.8 886.3,173 971,179.9 		"/>
		<polygon class="st22" points="925.9,210.8 886.3,173 926.3,205.3 971,179.9 		"/>
	</g>
	<g>
		
			<rect x="541.3" y="109.2" transform="matrix(0.9511 -0.3088 0.3088 0.9511 -12.0454 184.157)" class="st20" width="69" height="41.9"/>
		<polygon class="st21" points="574.9,127.4 549.5,160.7 615.1,139.4 		"/>
		<polygon class="st21" points="578,136.8 536.5,120.9 602.2,99.6 		"/>
		<polygon class="st22" points="578,136.8 536.5,120.9 576.6,132.6 602.2,99.6 		"/>
	</g>
	<g>
		
			<rect x="802.9" y="205.7" transform="matrix(0.6305 -0.7762 0.7762 0.6305 117.9756 728.2308)" class="st20" width="41.9" height="69"/>
		<polygon class="st21" points="825.7,237.9 783.8,234.7 837.4,278.2 		"/>
		<polygon class="st21" points="819.4,245.6 810.3,202.2 863.8,245.7 		"/>
		<polygon class="st22" points="819.4,245.6 810.3,202.2 822.2,242.2 863.8,245.7 		"/>
	</g>
	<g>
		
			<rect x="452.6" y="414.7" transform="matrix(0.7871 -0.6168 0.6168 0.7871 -171.8982 424.926)" class="st20" width="153.9" height="93.5"/>
		<polygon class="st21" points="525.6,456.4 497.9,545.8 619,450.8 		"/>
		<polygon class="st21" points="539.2,473.7 440.2,472.1 561.3,377.2 		"/>
		<polygon class="st22" points="539.2,473.7 440.2,472.1 533.1,465.9 561.3,377.2 		"/>
	</g>
</g>
</svg>
