<?xml version="1.0" encoding="iso-8859-1"?>
<!-- Generator: Adobe Illustrator 19.0.0, SVG Export Plug-In . SVG Version: 6.00 Build 0)  -->
<svg version="1.1" id="Capa_1" xmlns="http://www.w3.org/2000/svg" xmlns:xlink="http://www.w3.org/1999/xlink" x="0px" y="0px"
	 viewBox="0 0 512 512" style="enable-background:new 0 0 512 512;" xml:space="preserve">
<path style="fill:#4DBBEB;" d="M501.401,195.523v225.45c0,11.023-8.928,19.951-19.951,19.951h-45.888v61.101l-73.151-61.101H176.195
	c-11.023,0-19.951-8.928-19.951-19.951v-56.043l39.903-29.747H415.61c11.023,0,19.951-8.928,19.951-19.951V175.571h45.888
	C492.473,175.571,501.401,184.5,501.401,195.523z"/>
<path style="fill:#FEB756;" d="M435.562,175.571V315.23c0,11.023-8.928,19.951-19.951,19.951H196.146l-39.903,29.747L96.39,409.55
	v-74.368H30.55c-11.023,0-19.951-8.928-19.951-19.951V29.927c0-11.023,8.928-19.951,19.951-19.951h385.06
	c11.023,0,19.951,8.928,19.951,19.951V175.571z"/>
<path style="fill:#FFF5CD;" d="M292.511,88.464l19.951,34.556l-28.59,16.51c1.237,5.187,2.055,10.534,2.055,16.091
	s-0.818,10.903-2.055,16.091l28.59,16.51l-19.951,34.556l-28.61-16.52c-7.801,7.362-17.318,12.769-27.852,15.941v33.179h-39.903
	v-33.179c-10.534-3.172-20.051-8.579-27.842-15.941l-28.62,16.52l-19.951-34.556l28.59-16.51
	c-1.237-5.187-2.055-10.534-2.055-16.091s0.818-10.903,2.055-16.091l-28.59-16.51l19.951-34.556l28.62,16.52
	c7.791-7.362,17.308-12.769,27.842-15.941V52.871h39.903v36.172c10.534,3.172,20.051,8.579,27.852,15.941L292.511,88.464z
	 M246.024,155.62c0-16.5-13.427-29.927-29.927-29.927S186.17,139.12,186.17,155.62s13.427,29.927,29.927,29.927
	S246.024,172.12,246.024,155.62z"/>
<path d="M305.878,295.279c0,5.507,4.469,9.976,9.976,9.976c5.507,0,9.976-4.469,9.976-9.976c0-5.507-4.469-9.976-9.976-9.976
	C310.347,285.303,305.878,289.773,305.878,295.279z"/>
<path d="M111.094,193.208l19.951,34.556c2.755,4.771,8.856,6.406,13.626,3.652l22.527-13.002c5.721,4.414,12.127,8.074,18.973,10.84
	v26.123c0,5.51,4.466,9.976,9.976,9.976h39.903c5.51,0,9.976-4.466,9.976-9.976v-26.11c6.894-2.764,13.246-6.392,18.992-10.848
	l22.507,12.996c2.29,1.323,5.015,1.683,7.57,0.997c2.556-0.684,4.734-2.356,6.057-4.648l19.951-34.556
	c2.754-4.771,1.12-10.871-3.65-13.627l-22.418-12.945c0.583-3.801,0.87-7.447,0.87-11.016s-0.286-7.215-0.87-11.016l22.418-12.945
	c4.77-2.755,6.404-8.855,3.65-13.627L301.15,83.476c-1.323-2.291-3.501-3.963-6.057-4.648c-2.558-0.685-5.279-0.326-7.57,0.997
	l-22.507,12.996c-5.746-4.454-12.097-8.082-18.992-10.848V52.871c0-5.51-4.466-9.976-9.976-9.976h-39.903
	c-5.51,0-9.976,4.466-9.976,9.976v29.117c-6.845,2.765-13.252,6.425-18.973,10.84l-22.527-13.002
	c-4.772-2.755-10.87-1.12-13.626,3.652l-19.951,34.556c-2.754,4.771-1.12,10.871,3.65,13.627l22.418,12.945
	c-0.583,3.801-0.87,7.447-0.87,11.016s0.286,7.215,0.87,11.016l-22.418,12.945C109.974,182.337,108.34,188.437,111.094,193.208z
	 M153.312,180.35c3.821-2.207,5.738-6.661,4.714-10.953c-1.2-5.03-1.783-9.536-1.783-13.776c0-4.241,0.583-8.747,1.783-13.776
	c1.023-4.293-0.894-8.747-4.714-10.953l-19.952-11.522l9.976-17.279l19.981,11.534c3.821,2.205,8.633,1.64,11.838-1.39
	c6.651-6.284,14.68-10.873,23.868-13.64c4.215-1.269,7.099-5.15,7.099-9.552V62.847h19.951v26.196c0,4.401,2.885,8.283,7.099,9.552
	c9.185,2.765,17.219,7.357,23.882,13.645c3.205,3.026,8.018,3.589,11.835,1.385l19.971-11.532l9.976,17.277l-19.952,11.522
	c-3.821,2.207-5.738,6.661-4.715,10.953c1.2,5.03,1.783,9.536,1.783,13.776c0,4.241-0.583,8.747-1.783,13.776
	c-1.023,4.293,0.894,8.747,4.715,10.953l19.952,11.522l-9.976,17.277l-19.971-11.532c-3.818-2.205-8.63-1.642-11.835,1.385
	c-6.663,6.288-14.697,10.878-23.882,13.645c-4.215,1.269-7.099,5.15-7.099,9.552v23.203h-19.951v-23.203
	c0-4.401-2.885-8.283-7.099-9.552c-9.187-2.766-17.217-7.356-23.868-13.64c-3.204-3.029-8.018-3.595-11.838-1.39l-19.981,11.534
	l-9.976-17.279L153.312,180.35z"/>
<path d="M216.097,195.523c22.002,0,39.903-17.9,39.903-39.903s-17.9-39.903-39.903-39.903s-39.903,17.9-39.903,39.903
	S194.095,195.523,216.097,195.523z M216.097,135.669c11.001,0,19.951,8.95,19.951,19.951s-8.95,19.951-19.951,19.951
	c-11.001,0-19.951-8.95-19.951-19.951S205.096,135.669,216.097,135.669z"/>
<path d="M275.951,285.303H136.292c-5.51,0-9.976,4.466-9.976,9.976s4.466,9.976,9.976,9.976h139.659c5.51,0,9.976-4.466,9.976-9.976
	S281.461,285.303,275.951,285.303z"/>
<path d="M481.45,165.596h-35.912V29.927C445.537,13.425,432.112,0,415.61,0H30.55C14.049,0,0.623,13.425,0.623,29.927V315.23
	c0,16.502,13.425,29.927,29.927,29.927h55.864v64.393c0,3.774,2.129,7.223,5.502,8.916c1.415,0.709,2.947,1.059,4.473,1.059
	c2.11,0,4.208-0.668,5.963-1.978l43.916-32.739v36.164c0,16.502,13.425,29.927,29.927,29.927h182.597l70.374,58.781
	c1.83,1.528,4.102,2.319,6.397,2.319c1.434,0,2.875-0.309,4.224-0.94c3.508-1.641,5.75-5.163,5.75-9.036v-51.125h35.912
	c16.502,0,29.927-13.425,29.927-29.927v-225.45C511.377,179.021,497.951,165.596,481.45,165.596z M96.39,325.206H30.55
	c-5.501,0-9.976-4.475-9.976-9.976V29.927c0-5.501,4.475-9.976,9.976-9.976h385.06c5.501,0,9.976,4.475,9.976,9.976V315.23
	c0,5.501-4.475,9.976-9.976,9.976H196.146c-2.149,0-4.24,0.693-5.962,1.978l-83.818,62.486v-54.489
	C106.365,329.672,101.899,325.206,96.39,325.206z M491.425,420.972c0,5.501-4.475,9.976-9.976,9.976h-45.888
	c-5.51,0-9.976,4.466-9.976,9.976v39.771l-56.78-47.426c-1.794-1.498-4.057-2.319-6.395-2.319H176.195
	c-5.501,0-9.976-4.475-9.976-9.976v-51.037l33.236-24.779H415.61c16.502,0,29.927-13.425,29.927-29.927V185.547h35.912
	c5.501,0,9.976,4.475,9.976,9.976V420.972z"/>
<g>
</g>
<g>
</g>
<g>
</g>
<g>
</g>
<g>
</g>
<g>
</g>
<g>
</g>
<g>
</g>
<g>
</g>
<g>
</g>
<g>
</g>
<g>
</g>
<g>
</g>
<g>
</g>
<g>
</g>
</svg>
