<?xml version="1.0" encoding="iso-8859-1"?>
<!-- Generator: Adobe Illustrator 19.0.0, SVG Export Plug-In . SVG Version: 6.00 Build 0)  -->
<svg version="1.1" id="Capa_1" xmlns="http://www.w3.org/2000/svg" xmlns:xlink="http://www.w3.org/1999/xlink" x="0px" y="0px"
	 viewBox="0 0 512 512" style="enable-background:new 0 0 512 512;" xml:space="preserve">
<polygon style="fill:#4DBBEB;" points="502,376 502,502 376,502 376,376 439,376 "/>
<path style="fill:#FFF5CD;" d="M332.6,42.68l20,34.64l-28.66,16.55c1.24,5.2,2.06,10.56,2.06,16.13s-0.82,10.93-2.06,16.13
	l28.66,16.55l-20,34.64l-28.68-16.56c-7.82,7.38-17.36,12.8-27.92,15.98V210h-20h-20v-33.26c-10.56-3.18-20.1-8.6-27.91-15.98
	l-28.69,16.56l-20-34.64l28.66-16.55c-1.24-5.2-2.06-10.56-2.06-16.13s0.82-10.93,2.06-16.13L159.4,77.32l20-34.64l28.69,16.56
	c7.81-7.38,17.35-12.8,27.91-15.98V10h40v33.26c10.56,3.18,20.1,8.6,27.92,15.98L332.6,42.68z M286,110c0-16.54-13.46-30-30-30
	s-30,13.46-30,30s13.46,30,30,30S286,126.54,286,110z"/>
<g>
	<polygon style="fill:#4DBBEB;" points="316,376 316,502 196,502 196,376 256,376 	"/>
	<polygon style="fill:#4DBBEB;" points="136,376 136,502 10,502 10,376 73,376 	"/>
</g>
<path d="M436,306c-5.52,0-10,4.48-10,10s4.48,10,10,10s10-4.48,10-10S441.52,306,436,306z"/>
<path d="M256,306c-5.52,0-10,4.48-10,10s4.48,10,10,10c5.52,0,10-4.48,10-10S261.52,306,256,306z"/>
<path d="M76,326c5.52,0,10-4.48,10-10s-4.48-10-10-10s-10,4.48-10,10S70.48,326,76,326z"/>
<path d="M316,366h-50v-10c0-5.522-4.478-10-10-10s-10,4.478-10,10v10h-50c-5.523,0-10,4.478-10,10v126c0,5.522,4.477,10,10,10h120
	c5.522,0,10-4.478,10-10V376C326,370.478,321.522,366,316,366z M306,492H206V386h100V492z"/>
<path d="M502,366h-53v-10c0-5.522-4.478-10-10-10s-10,4.478-10,10v10h-53c-5.522,0-10,4.478-10,10v126c0,5.522,4.478,10,10,10h126
	c5.522,0,10-4.478,10-10V376C512,370.478,507.522,366,502,366z M492,492H386V386h106V492z"/>
<path d="M136,366H83v-10c0-5.522-4.477-10-10-10s-10,4.478-10,10v10H10c-5.523,0-10,4.478-10,10v126c0,5.522,4.477,10,10,10h126
	c5.523,0,10-4.478,10-10V376C146,370.478,141.523,366,136,366z M126,492H20V386h106V492z"/>
<path d="M43,416c0,5.522,4.477,10,10,10h40c5.523,0,10-4.478,10-10s-4.477-10-10-10H53C47.477,406,43,410.478,43,416z"/>
<path d="M93,449H53c-5.523,0-10,4.478-10,10s4.477,10,10,10h40c5.523,0,10-4.478,10-10S98.523,449,93,449z"/>
<path d="M226,416c0,5.522,4.477,10,10,10h40c5.522,0,10-4.478,10-10s-4.478-10-10-10h-40C230.477,406,226,410.478,226,416z"/>
<path d="M276,449h-40c-5.523,0-10,4.478-10,10s4.477,10,10,10h40c5.522,0,10-4.478,10-10S281.522,449,276,449z"/>
<path d="M409,416c0,5.522,4.478,10,10,10h40c5.522,0,10-4.478,10-10s-4.478-10-10-10h-40C413.478,406,409,410.478,409,416z"/>
<path d="M459,449h-40c-5.522,0-10,4.478-10,10s4.478,10,10,10h40c5.522,0,10-4.478,10-10S464.522,449,459,449z"/>
<path d="M76,283c5.523,0,10-4.478,10-10c0-5.514,4.486-10,10-10h150v10c0,5.522,4.478,10,10,10s10-4.478,10-10v-10h150
	c5.514,0,10,4.486,10,10c0,5.522,4.478,10,10,10s10-4.478,10-10c0-16.542-13.458-30-30-30H266v-23h10c5.522,0,10-4.478,10-10
	v-26.175c6.911-2.771,13.277-6.407,19.037-10.873l22.562,13.028c2.298,1.326,5.026,1.688,7.589,0.999
	c2.562-0.687,4.746-2.362,6.072-4.659l20-34.641c2.762-4.782,1.123-10.898-3.659-13.66l-22.473-12.977
	C335.713,117.231,336,113.577,336,110s-0.287-7.231-0.872-11.043l22.473-12.977c4.782-2.762,6.421-8.878,3.659-13.66l-20-34.641
	c-1.326-2.297-3.511-3.973-6.072-4.659s-5.291-0.327-7.589,0.999l-22.562,13.028c-5.76-4.466-12.126-8.102-19.037-10.873V10
	c0-5.522-4.478-10-10-10h-40c-5.523,0-10,4.478-10,10v26.188c-6.861,2.772-13.284,6.442-19.019,10.866l-22.582-13.035
	c-4.782-2.759-10.898-1.122-13.659,3.661l-20,34.641c-2.761,4.782-1.123,10.898,3.66,13.66l22.472,12.977
	C176.287,102.767,176,106.422,176,110s0.287,7.233,0.872,11.043L154.4,134.02c-4.783,2.762-6.421,8.878-3.66,13.66l20,34.641
	c2.761,4.782,8.878,6.421,13.659,3.661l22.582-13.035c5.735,4.424,12.158,8.094,19.019,10.866V210c0,5.522,4.477,10,10,10h10v23H96
	c-16.542,0-30,13.458-30,30C66,278.522,70.477,283,76,283z M238.884,167.165c-9.209-2.773-17.259-7.374-23.926-13.674
	c-3.212-3.035-8.039-3.602-11.867-1.393l-20.03,11.563l-10-17.322l20-11.549c3.831-2.212,5.753-6.678,4.727-10.98
	C196.584,118.768,196,114.25,196,110s0.584-8.768,1.787-13.81c1.026-4.303-0.896-8.769-4.727-10.98l-20-11.549l10-17.322
	l20.03,11.563c3.829,2.209,8.653,1.643,11.867-1.393c6.667-6.3,14.716-10.9,23.926-13.674c4.225-1.272,7.116-5.163,7.116-9.575V20
	h20v23.26c0,4.412,2.892,8.303,7.116,9.575c9.206,2.773,17.261,7.375,23.94,13.678c3.214,3.033,8.036,3.598,11.864,1.388
	l20.019-11.56l10,17.32l-20,11.549c-3.829,2.212-5.752,6.677-4.727,10.979C315.415,101.234,316,105.752,316,110
	s-0.585,8.766-1.787,13.812c-1.025,4.302,0.897,8.767,4.727,10.979l20,11.549l-10,17.32l-20.019-11.56
	c-3.827-2.21-8.65-1.646-11.864,1.388c-6.68,6.303-14.734,10.904-23.94,13.678c-4.225,1.272-7.116,5.163-7.116,9.575V200h-20v-23.26
	C246,172.328,243.108,168.438,238.884,167.165z"/>
<path d="M296,110c0-22.056-17.944-40-40-40s-40,17.944-40,40s17.944,40,40,40S296,132.056,296,110z M236,110
	c0-11.028,8.972-20,20-20c11.028,0,20,8.972,20,20s-8.972,20-20,20S236,121.028,236,110z"/>
<g>
</g>
<g>
</g>
<g>
</g>
<g>
</g>
<g>
</g>
<g>
</g>
<g>
</g>
<g>
</g>
<g>
</g>
<g>
</g>
<g>
</g>
<g>
</g>
<g>
</g>
<g>
</g>
<g>
</g>
</svg>
