<?xml version="1.0" encoding="iso-8859-1"?>
<!-- Generator: Adobe Illustrator 19.0.0, SVG Export Plug-In . SVG Version: 6.00 Build 0)  -->
<svg version="1.1" id="Capa_1" xmlns="http://www.w3.org/2000/svg" xmlns:xlink="http://www.w3.org/1999/xlink" x="0px" y="0px"
	 viewBox="0 0 512.003 512.003" style="enable-background:new 0 0 512.003 512.003;" xml:space="preserve">
<path style="fill:#FFF5CD;" d="M502,226.001v60l-49.71,10.93c-5.17,24.53-14.84,47.77-28.71,68.66l23.34,38.9l-42.43,42.43
	l-39.37-23.62c-20.74,13.44-43.67,22.89-67.91,27.85L286,502.001h-60l-11.21-50.85c-24.24-4.96-47.17-14.41-67.91-27.85
	l-39.37,23.62l-42.43-42.43l23.34-38.9c-13.88-20.89-23.54-44.13-28.71-68.66L10,286.001v-60l49.33-10.83
	c5.03-24.83,14.74-48.33,28.66-69.48l-22.91-38.18l42.43-42.43l38.18,22.91c21.15-13.92,44.65-23.63,69.48-28.66L226,10.001h60
	l10.83,49.33c24.83,5.03,48.33,14.74,69.48,28.66l38.18-22.91l42.43,42.43l-22.91,38.18c13.92,21.15,23.63,44.65,28.66,69.48
	L502,226.001z"/>
<path style="fill:#FD3C65;" d="M376.26,186.991l-51.99,30.02c6.82,11.77,10.73,25.43,10.73,39.99s-3.91,28.22-10.73,39.99
	l51.99,30.02c0.74-1.29,1.47-2.59,2.17-3.9c0.36-0.65,0.7-1.31,1.05-1.98c0.32-0.63,0.65-1.27,0.97-1.91
	c0.02-0.05,0.04-0.09,0.07-0.14c0.32-0.65,0.63-1.3,0.95-1.96c0.32-0.68,0.64-1.35,0.94-2.03c0.61-1.32,1.19-2.66,1.76-4.01
	c0.6-1.44,1.18-2.88,1.74-4.34c0.26-0.69,0.51-1.38,0.76-2.07c0.14-0.38,0.28-0.76,0.41-1.15c0.19-0.53,0.38-1.08,0.56-1.62
	c0.19-0.54,0.37-1.08,0.55-1.63c0.21-0.68,0.43-1.36,0.64-2.05c0.22-0.72,0.44-1.45,0.65-2.18c0.18-0.62,0.36-1.25,0.53-1.88
	c0.46-1.66,0.89-3.33,1.28-5.01c0.16-0.66,0.31-1.31,0.45-1.97c0.19-0.85,0.37-1.71,0.54-2.57c0.13-0.65,0.25-1.3,0.37-1.95
	c0.07-0.35,0.13-0.7,0.19-1.05c0.1-0.52,0.18-1.03,0.27-1.55c0.25-1.5,0.47-3.01,0.67-4.52c0.09-0.68,0.18-1.37,0.26-2.05
	c0.09-0.77,0.18-1.55,0.25-2.33c0.07-0.7,0.14-1.41,0.2-2.12c0.07-0.85,0.14-1.7,0.19-2.56c0.06-0.76,0.1-1.52,0.14-2.28
	c0-0.02,0-0.04,0-0.07c0.04-0.75,0.07-1.49,0.09-2.24c0.04-0.9,0.06-1.8,0.07-2.71c0.01-0.73,0.02-1.45,0.02-2.18
	C395,231.501,388.18,207.591,376.26,186.991z"/>
<path style="fill:#FEB756;" d="M324.27,296.991c6.82-11.77,10.73-25.43,10.73-39.99s-3.91-28.22-10.73-39.99
	c-7.03-12.13-17.15-22.25-29.28-29.28c-11.77-6.82-25.43-10.73-39.99-10.73s-28.22,3.91-39.99,10.73
	c-12.13,7.03-22.25,17.15-29.28,29.28c-6.82,11.77-10.73,25.43-10.73,39.99s3.91,28.22,10.73,39.99l-51.99,30.02
	c24.2,41.84,69.44,69.99,121.26,69.99s97.06-28.15,121.26-69.99L324.27,296.991z"/>
<g>
	<path style="fill:#4DBBEB;" d="M255,237.001c11.05,0,20,8.95,20,20c0,11.05-8.95,20-20,20c-11.05,0-20-8.95-20-20
		C235,245.951,243.95,237.001,255,237.001z"/>
	<path style="fill:#4DBBEB;" d="M325.01,135.741c-20.6-11.92-44.51-18.74-70.01-18.74s-49.41,6.82-70.01,18.74
		c-21.25,12.29-38.96,30-51.25,51.25c-11.92,20.6-18.74,44.51-18.74,70.01c0,0.73,0.01,1.45,0.02,2.18
		c0.01,0.92,0.03,1.83,0.07,2.74c0.02,0.74,0.05,1.48,0.09,2.21c0,0.03,0,0.05,0,0.07c0.04,0.77,0.08,1.53,0.14,2.29
		c0.06,0.87,0.12,1.74,0.19,2.61c0.06,0.69,0.13,1.38,0.2,2.07c0.08,0.8,0.17,1.6,0.26,2.4c0.07,0.62,0.15,1.24,0.23,1.86
		c0.21,1.55,0.44,3.09,0.69,4.63c0.09,0.57,0.19,1.15,0.3,1.72c0.05,0.31,0.11,0.62,0.17,0.93c0.11,0.62,0.23,1.24,0.35,1.86
		c0.18,0.87,0.36,1.74,0.55,2.61c0.14,0.66,0.29,1.32,0.45,1.97c0.39,1.68,0.82,3.35,1.28,5.01c0.17,0.63,0.35,1.26,0.53,1.88
		c0.21,0.73,0.43,1.46,0.65,2.18c0.21,0.69,0.43,1.37,0.64,2.05c0.18,0.55,0.36,1.09,0.55,1.63c0.18,0.54,0.37,1.09,0.56,1.62
		c0.13,0.39,0.27,0.77,0.41,1.15c0.25,0.69,0.5,1.38,0.76,2.07c0.56,1.46,1.14,2.9,1.74,4.34c0.57,1.35,1.15,2.69,1.76,4.01
		c0.3,0.68,0.62,1.35,0.94,2.03c0.32,0.66,0.63,1.31,0.95,1.96c0.03,0.05,0.05,0.09,0.07,0.14c0.32,0.64,0.65,1.28,0.97,1.91
		c0.35,0.67,0.69,1.33,1.05,1.98c0.7,1.31,1.43,2.61,2.17,3.9l51.99-30.02c-6.82-11.77-10.73-25.43-10.73-39.99
		s3.91-28.22,10.73-39.99c7.03-12.13,17.15-22.25,29.28-29.28c11.77-6.82,25.43-10.73,39.99-10.73s28.22,3.91,39.99,10.73
		c12.13,7.03,22.25,17.15,29.28,29.28l51.99-30.02C363.97,165.741,346.26,148.031,325.01,135.741z"/>
</g>
<path d="M315,327.001c-5.52,0-10,4.48-10,10s4.48,10,10,10s10-4.48,10-10S320.52,327.001,315,327.001z"/>
<path d="M195,327.001c-5.52,0-10,4.48-10,10s4.48,10,10,10s10-4.48,10-10S200.52,327.001,195,327.001z"/>
<path d="M504.145,216.233l-43.076-9.457c-5.104-21.685-13.593-42.233-25.303-61.241l19.729-32.879
	c2.36-3.935,1.74-8.972-1.504-12.216l-42.43-42.43c-3.245-3.245-8.282-3.864-12.217-1.503l-32.879,19.729
	c-19.008-11.71-39.557-20.2-61.241-25.303l-9.457-43.076c-1.006-4.587-5.071-7.856-9.767-7.856h-60
	c-4.696,0-8.761,3.269-9.768,7.855l-9.457,43.076c-21.685,5.103-42.233,13.592-61.241,25.303l-32.879-19.729
	c-3.938-2.362-8.973-1.742-12.217,1.503l-42.43,42.43c-3.244,3.245-3.864,8.281-1.504,12.216l19.729,32.879
	c-11.71,19.008-20.199,39.557-25.303,61.241l-43.076,9.457C3.269,217.241,0,221.304,0,226.001v60c0,4.695,3.267,8.758,7.853,9.767
	l43.51,9.567c5.224,21.514,13.708,41.792,25.288,60.436l-20.146,33.576c-2.36,3.935-1.74,8.971,1.504,12.216l42.43,42.43
	c3.245,3.244,8.281,3.865,12.216,1.504l34.11-20.464c18.601,11.289,38.605,19.509,59.634,24.504l9.836,44.617
	c1.011,4.584,5.072,7.848,9.766,7.848h60c4.693,0,8.755-3.264,9.766-7.848l9.836-44.617c21.028-4.996,41.033-13.216,59.634-24.504
	l34.11,20.464c3.934,2.36,8.971,1.741,12.216-1.504l42.43-42.43c3.244-3.245,3.864-8.281,1.504-12.216l-20.146-33.577
	c11.583-18.659,20.068-38.937,25.289-60.435l43.51-9.567c4.586-1.008,7.853-5.071,7.853-9.767v-60
	C512,221.304,508.731,217.241,504.145,216.233z M492,277.961l-41.857,9.204c-3.839,0.844-6.827,3.858-7.638,7.704
	c-4.946,23.468-14.116,45.401-27.256,65.191c-2.134,3.213-2.229,7.368-0.244,10.676l19.323,32.205l-31.389,31.388l-32.675-19.604
	c-3.272-1.963-7.378-1.894-10.583,0.183c-19.831,12.851-41.523,21.749-64.477,26.445c-3.869,0.792-6.91,3.787-7.761,7.644
	l-9.478,43.004h-43.93l-9.479-43.003c-0.851-3.857-3.892-6.853-7.761-7.644c-22.953-4.697-44.646-13.594-64.477-26.445
	c-3.203-2.077-7.31-2.146-10.583-0.183L109.06,434.33l-31.388-31.389l19.323-32.205c1.985-3.309,1.89-7.465-0.246-10.679
	c-13.134-19.767-22.304-41.699-27.254-65.188c-0.811-3.846-3.799-6.86-7.638-7.704L20,277.961v-43.917l41.475-9.105
	c3.867-0.849,6.87-3.901,7.656-7.782c4.782-23.603,13.938-45.797,27.213-65.968c2.112-3.21,2.198-7.347,0.222-10.643l-18.894-31.485
	l31.388-31.387l31.485,18.893c3.295,1.977,7.431,1.892,10.644-0.222c20.17-13.275,42.364-22.431,65.967-27.212
	c3.881-0.786,6.933-3.789,7.782-7.656l9.105-41.476h43.914l9.105,41.475c0.85,3.868,3.901,6.87,7.782,7.656
	c23.603,4.781,45.797,13.937,65.967,27.212c3.212,2.113,7.348,2.199,10.644,0.222l31.485-18.893l31.388,31.387l-18.894,31.485
	c-1.977,3.296-1.891,7.433,0.222,10.643c13.275,20.17,22.431,42.365,27.213,65.968c0.786,3.881,3.789,6.933,7.656,7.782L492,234.043
	V277.961z"/>
<path d="M384.92,181.991c-0.002-0.003-0.004-0.005-0.005-0.008c-13.161-22.755-32.144-41.738-54.896-54.896
	c-22.707-13.141-48.648-20.086-75.019-20.086s-52.312,6.945-75.017,20.083c-22.755,13.16-41.738,32.144-54.898,54.898
	c0,0.001-0.001,0.001-0.001,0.002c-0.001,0.002-0.003,0.004-0.004,0.006c-0.002,0.004-0.004,0.008-0.006,0.012
	c-13.326,23.038-20.429,49.576-20.053,77.312l0,0c0.298,25.274,6.891,49.743,20.046,72.674c0.001,0.002,0.003,0.004,0.004,0.006
	c0.004,0.008,0.008,0.014,0.012,0.022c26.753,46.253,76.533,74.985,129.917,74.985c78.87,0,145.54-61.576,149.807-142.273l0,0
	c1.373-30.967-6.104-58.909-19.879-82.722C384.925,182,384.923,181.995,384.92,181.991z M344.435,267.001h40.18
	c-1.327,17.469-6.598,35.151-12.339,46.162l-34.822-20.106C341.077,284.784,343.428,275.992,344.435,267.001z M344.43,247.001
	c-1.007-8.99-3.364-17.778-6.985-26.05l34.812-20.101c6.918,14.446,11.109,30.113,12.343,46.151H344.43z M362.245,183.536
	l-34.82,20.105c-5.367-7.266-11.799-13.699-19.066-19.066l20.105-34.82C341.697,158.836,353.164,170.303,362.245,183.536z
	 M218.95,174.556l-20.101-34.812c14.445-6.919,30.112-11.109,46.151-12.343v40.17C236.011,168.578,227.222,170.935,218.95,174.556z
	 M265,127.401c16.039,1.234,31.705,5.424,46.151,12.343l-20.101,34.812c-8.272-3.622-17.061-5.978-26.05-6.985V127.401z
	 M181.535,149.756l20.105,34.82c-7.267,5.367-13.699,11.799-19.066,19.066l-34.82-20.105
	C156.836,170.304,168.302,158.837,181.535,149.756z M172.546,293.057l-34.822,20.106c-6.129-15.46-10.851-25.392-12.34-46.162
	h40.181C166.572,275.992,168.923,284.784,172.546,293.057z M137.743,200.85l34.813,20.101c-3.622,8.272-5.979,17.061-6.986,26.05
	H125.4C126.634,230.963,130.825,215.296,137.743,200.85z M255,387.001c-42.909,0-83.123-21.431-107.242-56.537l42.973-24.813
	c2.3-1.328,3.977-3.515,4.661-6.08c0.686-2.565,0.322-5.297-1.009-7.594C188.244,281.384,185,269.29,185,257.001
	s3.244-24.383,9.383-34.976c6.154-10.62,15.021-19.487,25.641-25.642c10.593-6.137,22.688-9.382,34.976-9.382
	s24.383,3.245,34.976,9.382c10.621,6.155,19.487,15.022,25.642,25.642c4.462,7.699,7.386,16.193,8.655,24.977H283.28
	c-4.128-11.639-15.243-20-28.28-20c-16.542,0-30,13.458-30,30s13.458,30,30,30c13.036,0,24.152-8.361,28.28-20h40.992
	c-1.269,8.784-4.193,17.277-8.655,24.977c-1.331,2.297-1.694,5.029-1.009,7.594s2.361,4.752,4.661,6.08l42.974,24.814
	C338.135,365.564,297.916,387.001,255,387.001z M265,257.001c0,5.514-4.486,10-10,10s-10-4.486-10-10s4.486-10,10-10
	S265,251.487,265,257.001z"/>
<path d="M285,327.001h-60c-5.522,0-10,4.477-10,10s4.478,10,10,10h60c5.522,0,10-4.477,10-10S290.522,327.001,285,327.001z"/>
<g>
</g>
<g>
</g>
<g>
</g>
<g>
</g>
<g>
</g>
<g>
</g>
<g>
</g>
<g>
</g>
<g>
</g>
<g>
</g>
<g>
</g>
<g>
</g>
<g>
</g>
<g>
</g>
<g>
</g>
</svg>
